<svg width="23" height="30" viewBox="0 0 23 30" fill="none" xmlns="http://www.w3.org/2000/svg">
<path d="M11.4999 18.583C10.2152 18.583 9.12318 18.1334 8.22388 17.2341C7.32457 16.3347 6.87492 15.2427 6.87492 13.958V4.70801C6.87492 3.42329 7.32457 2.33127 8.22388 1.43197C9.12318 0.532661 10.2152 0.0830078 11.4999 0.0830078C12.7846 0.0830078 13.8767 0.532661 14.776 1.43197C15.6753 2.33127 16.1249 3.42329 16.1249 4.70801V13.958C16.1249 15.2427 15.6753 16.3347 14.776 17.2341C13.8767 18.1334 12.7846 18.583 11.4999 18.583ZM9.95825 29.3747V24.6341C7.28603 24.2743 5.07631 23.0795 3.32908 21.0497C1.58186 19.0198 0.708252 16.6559 0.708252 13.958H3.79159C3.79159 16.0906 4.54341 17.9088 6.04704 19.4124C7.55068 20.9161 9.36831 21.6674 11.4999 21.6663C13.6315 21.6653 15.4497 20.9135 16.9543 19.4109C18.459 17.9083 19.2103 16.0906 19.2083 13.958H22.2916C22.2916 16.6559 21.418 19.0198 19.6707 21.0497C17.9235 23.0795 15.7138 24.2743 13.0416 24.6341V29.3747H9.95825ZM11.4999 15.4997C11.9367 15.4997 12.3031 15.3517 12.5991 15.0557C12.8951 14.7597 13.0426 14.3938 13.0416 13.958V4.70801C13.0416 4.2712 12.8936 3.90531 12.5976 3.61034C12.3016 3.31537 11.9357 3.16737 11.4999 3.16634C11.0641 3.16531 10.6983 3.31331 10.4023 3.61034C10.1063 3.90737 9.95825 4.27326 9.95825 4.70801V13.958C9.95825 14.3948 10.1063 14.7612 10.4023 15.0572C10.6983 15.3532 11.0641 15.5007 11.4999 15.4997Z" fill="black"/>
</svg>
