<svg width="35" height="35" viewBox="0 0 35 35" fill="none" xmlns="http://www.w3.org/2000/svg">
<path fill-rule="evenodd" clip-rule="evenodd" d="M5.46875 10.9375C6.19395 10.9375 6.88945 10.6494 7.40225 10.1366C7.91504 9.62383 8.20312 8.92833 8.20312 8.20312C8.20312 7.47792 7.91504 6.78242 7.40225 6.26963C6.88945 5.75684 6.19395 5.46875 5.46875 5.46875C4.74355 5.46875 4.04805 5.75684 3.53525 6.26963C3.02246 6.78242 2.73438 7.47792 2.73438 8.20312C2.73438 8.92833 3.02246 9.62383 3.53525 10.1366C4.04805 10.6494 4.74355 10.9375 5.46875 10.9375ZM12.5781 6.5625C12.143 6.5625 11.7257 6.73535 11.418 7.04303C11.1104 7.3507 10.9375 7.768 10.9375 8.20312C10.9375 8.63825 11.1104 9.05555 11.418 9.36322C11.7257 9.6709 12.143 9.84375 12.5781 9.84375H31.1719C31.607 9.84375 32.0243 9.6709 32.332 9.36322C32.6396 9.05555 32.8125 8.63825 32.8125 8.20312C32.8125 7.768 32.6396 7.3507 32.332 7.04303C32.0243 6.73535 31.607 6.5625 31.1719 6.5625H12.5781ZM12.5781 25.1562C12.143 25.1562 11.7257 25.3291 11.418 25.6368C11.1104 25.9445 10.9375 26.3618 10.9375 26.7969C10.9375 27.232 11.1104 27.6493 11.418 27.957C11.7257 28.2646 12.143 28.4375 12.5781 28.4375H31.1719C31.607 28.4375 32.0243 28.2646 32.332 27.957C32.6396 27.6493 32.8125 27.232 32.8125 26.7969C32.8125 26.3618 32.6396 25.9445 32.332 25.6368C32.0243 25.3291 31.607 25.1562 31.1719 25.1562H12.5781ZM10.9375 17.5C10.9375 17.0649 11.1104 16.6476 11.418 16.3399C11.7257 16.0322 12.143 15.8594 12.5781 15.8594H31.1719C31.607 15.8594 32.0243 16.0322 32.332 16.3399C32.6396 16.6476 32.8125 17.0649 32.8125 17.5C32.8125 17.9351 32.6396 18.3524 32.332 18.6601C32.0243 18.9678 31.607 19.1406 31.1719 19.1406H12.5781C12.143 19.1406 11.7257 18.9678 11.418 18.6601C11.1104 18.3524 10.9375 17.9351 10.9375 17.5ZM8.20312 17.5C8.20312 18.2252 7.91504 18.9207 7.40225 19.4335C6.88945 19.9463 6.19395 20.2344 5.46875 20.2344C4.74355 20.2344 4.04805 19.9463 3.53525 19.4335C3.02246 18.9207 2.73438 18.2252 2.73438 17.5C2.73438 16.7748 3.02246 16.0793 3.53525 15.5665C4.04805 15.0537 4.74355 14.7656 5.46875 14.7656C6.19395 14.7656 6.88945 15.0537 7.40225 15.5665C7.91504 16.0793 8.20312 16.7748 8.20312 17.5ZM5.46875 29.5312C6.19395 29.5312 6.88945 29.2432 7.40225 28.7304C7.91504 28.2176 8.20312 27.5221 8.20312 26.7969C8.20312 26.0717 7.91504 25.3762 7.40225 24.8634C6.88945 24.3506 6.19395 24.0625 5.46875 24.0625C4.74355 24.0625 4.04805 24.3506 3.53525 24.8634C3.02246 25.3762 2.73438 26.0717 2.73438 26.7969C2.73438 27.5221 3.02246 28.2176 3.53525 28.7304C4.04805 29.2432 4.74355 29.5312 5.46875 29.5312Z" fill="black"/>
</svg>
