<svg width="1920" height="1040" viewBox="0 0 1920 1040" fill="none" xmlns="http://www.w3.org/2000/svg">
<g clip-path="url(#clip0_8036_25750)">
<rect width="1920" height="1040" fill="white"/>
<mask id="mask0_8036_25750" style="mask-type:luminance" maskUnits="userSpaceOnUse" x="-68" y="-37" width="2054" height="1113">
<path d="M1985.6 -36.3999H-67.1992V1075.1H1985.6V-36.3999Z" fill="white"/>
</mask>
<g mask="url(#mask0_8036_25750)">
<path d="M1985.6 -36.3999H-67.1992V1075.1H1985.6V-36.3999Z" fill="#F4F7FA"/>
</g>
<mask id="mask1_8036_25750" style="mask-type:luminance" maskUnits="userSpaceOnUse" x="-68" y="-37" width="2054" height="1113">
<path d="M1985.6 -36.3999H-67.1992V1075.1H1985.6V-36.3999Z" fill="white"/>
</mask>
<g mask="url(#mask1_8036_25750)">
<path d="M-294.889 320.114C-213.119 243.976 -74.7259 228.693 34.4146 283.573C120.632 326.922 185.295 407.088 274.763 442.934C405.287 495.036 543.851 438.349 662.229 381.107C780.607 323.865 916.434 264.261 1048.67 311.222C1100.5 329.7 1145.83 363.045 1194.76 388.332C1243.68 413.757 1301.68 431.403 1350.94 414.869C1402.95 397.363 1431.34 347.345 1467.78 308.86C1537.41 234.945 1648.26 198.543 1756.88 213.965C1865.51 229.387 1969.35 296.216 2027.51 388.332" stroke="#CDCDDB" stroke-width="0.5" stroke-miterlimit="10"/>
<path d="M-291.125 348.179C-225.264 284.268 -120.229 260.926 -24.0899 284.268C-4.07512 289.13 15.5975 295.938 34.5859 304.83C90.1826 331.09 137.739 372.771 188.204 408.895C216.259 429.179 245.34 447.519 277.672 460.301C286.225 463.636 294.778 466.554 303.332 469.054C351.23 482.948 399.984 483.365 447.883 474.89C498.005 465.998 547.444 447.936 595 427.512C618.779 417.37 642.044 406.533 664.796 395.973C745.368 358.182 834.323 320.808 924.133 314C967.241 310.805 1010.18 314.139 1052.6 328.033C1104.09 344.844 1149.09 375.55 1197.33 398.613C1207.93 403.615 1218.71 408.339 1230 412.368C1269.86 426.956 1313.14 433.625 1351.46 420.148C1403.29 401.948 1432.54 352.625 1469.66 314.834C1474.63 309.832 1479.76 304.83 1485.23 300.245C1556.22 237.862 1659.55 209.102 1760.82 223.691C1770.74 225.08 1780.66 226.886 1790.41 229.248C1888.44 251.478 1979.44 314 2033.16 397.363" stroke="#CDCDDB" stroke-width="0.5" stroke-miterlimit="10"/>
<path d="M-287.361 376.383C-223.211 311.5 -119.887 286.352 -24.0897 307.193C-4.07492 311.5 15.5978 317.891 34.5862 326.227C90.696 350.958 139.108 391.25 190.086 426.957C218.483 446.964 247.735 465.304 280.067 477.947C288.62 481.281 297.174 484.199 305.727 486.7C353.968 500.594 402.722 501.01 450.449 491.702C500.401 482.115 548.984 463.219 596.711 442.657C620.49 432.375 643.926 421.677 666.849 411.396C747.934 374.438 837.402 339.704 927.554 333.174C971.005 329.978 1013.94 332.757 1056.03 345.4C1107.35 360.545 1151.82 388.61 1199.21 409.312C1209.64 413.897 1220.25 418.065 1231.37 421.677C1270.54 434.598 1313.14 440.017 1351.12 426.123C1402.61 407.228 1432.89 358.599 1470.69 321.503C1475.82 316.501 1481.13 311.778 1486.43 307.193C1558.62 246.338 1662.11 219.245 1763.73 233.973C1773.65 235.362 1783.57 237.307 1793.49 239.53C1891.86 261.76 1983.38 323.726 2038.12 406.95" stroke="#CDCDDB" stroke-width="0.5" stroke-miterlimit="10"/>
<path d="M-283.428 404.449C-221.159 338.592 -119.375 311.639 -24.0907 329.978C-4.0759 333.869 15.5968 339.565 34.7562 347.484C91.2082 370.687 140.646 409.59 192.309 444.88C221.048 464.609 250.471 482.81 282.974 495.453C291.527 498.787 300.081 501.705 308.805 504.206C357.217 518.1 406.142 518.378 453.527 508.374C503.137 498.093 551.206 478.364 598.934 457.523C622.883 447.103 646.319 436.543 669.413 426.54C751.183 390.555 841.164 358.322 931.488 352.069C975.281 349.013 1018.22 351.236 1059.96 362.49C1110.94 376.106 1154.9 401.531 1201.77 419.871C1212.04 423.9 1222.47 427.651 1233.25 430.708C1271.74 441.962 1313.65 445.991 1351.46 431.681C1402.78 411.951 1433.74 364.157 1472.4 327.894C1477.53 323.031 1483.01 318.308 1488.48 313.862C1561.87 254.396 1665.53 228.971 1767.32 243.837C1777.24 245.365 1787.33 247.172 1797.08 249.395C1895.96 271.486 1987.82 333.174 2043.42 416.259" stroke="#CDCDDB" stroke-width="0.5" stroke-miterlimit="10"/>
<path d="M-279.664 432.514C-219.106 365.685 -119.032 336.925 -24.0905 352.903C-4.07567 356.237 15.597 361.517 34.9276 368.881C91.7217 390.694 142.186 428.068 194.533 462.941C223.443 482.393 253.209 500.455 285.882 513.237C294.436 516.571 303.16 519.489 311.713 521.99C360.296 535.884 409.393 536.023 456.607 525.186C506.045 514.071 553.431 493.508 601.158 472.667C625.108 462.108 648.715 451.826 671.98 441.962C754.263 406.811 844.928 377.217 935.422 371.104C979.558 368.186 1022.32 369.714 1064.06 379.579C1114.7 391.528 1158.32 414.313 1204.34 430.291C1214.43 433.765 1224.7 436.96 1235.3 439.6C1273.11 449.048 1314.51 452.104 1351.97 437.238C1403.12 416.953 1434.94 369.714 1474.28 334.146C1479.59 329.423 1485.06 324.838 1490.7 320.392C1565.46 262.594 1669.3 238.696 1771.25 253.702C1781.35 255.23 1791.27 257.036 1801.19 259.259C1900.41 281.211 1992.79 342.483 2049.24 425.428" stroke="#CDCDDB" stroke-width="0.5" stroke-miterlimit="10"/>
<path d="M-275.9 460.718C-217.053 392.917 -118.69 362.211 -24.0902 375.827C-4.07545 378.745 15.7683 383.469 34.9278 390.277C92.0641 410.562 143.555 446.547 196.415 481.003C225.667 500.176 255.604 518.238 288.277 530.882C296.831 534.216 305.555 537.134 314.28 539.635C363.034 553.528 412.301 553.389 459.344 541.997C508.44 530.048 555.313 508.791 602.869 487.811C626.818 477.113 650.597 466.97 674.033 457.245C756.829 423.066 848.179 395.973 938.844 390.138C983.15 387.359 1026.09 388.332 1067.49 396.807C1117.78 407.227 1161.06 427.234 1206.39 440.85C1216.31 443.768 1226.41 446.547 1236.84 448.631C1273.96 456.411 1314.68 458.078 1351.8 442.795C1402.78 421.816 1435.28 375.133 1475.48 340.398C1480.95 335.674 1486.43 331.228 1492.24 327.06C1568.2 270.652 1672.21 248.422 1774.5 263.705C1784.6 265.233 1794.52 267.039 1804.44 269.262C1904 291.214 1996.89 352.069 2054.37 434.737" stroke="#CDCDDB" stroke-width="0.5" stroke-miterlimit="10"/>
<path d="M-272.137 488.783C-215.172 420.009 -118.177 387.498 -24.2611 398.613C-4.41735 400.975 15.5975 405.143 34.928 411.534C92.4064 430.291 144.924 464.886 198.468 498.926C227.891 517.821 258.17 535.744 291.015 548.388C299.739 551.722 308.293 554.64 317.017 557.002C365.942 570.896 415.209 570.618 462.253 558.53C511.007 545.887 557.366 523.796 604.922 502.538C629.043 491.84 652.821 481.698 676.428 472.25C759.737 439.044 851.771 414.452 942.608 408.894C987.256 406.255 1030.19 406.532 1071.25 413.757C1121.37 422.51 1164.14 440.016 1208.79 451.27C1218.54 453.771 1228.46 455.994 1238.72 457.661C1275.16 463.775 1315.36 464.192 1352.14 448.492C1402.78 426.817 1436.31 380.829 1477.36 346.928C1482.84 342.343 1488.65 338.036 1494.47 333.868C1571.45 278.988 1675.97 258.425 1778.27 273.847C1788.36 275.375 1798.28 277.182 1808.38 279.405C1908.45 301.218 2001.68 361.656 2060.02 444.185" stroke="#CDCDDB" stroke-width="0.5" stroke-miterlimit="10"/>
<path d="M-268.373 516.849C-213.119 447.242 -117.834 412.646 -24.2609 421.538C-4.41714 423.344 15.5976 427.096 35.0992 432.792C93.0908 450.02 146.464 483.226 200.692 516.849C230.457 535.467 260.736 553.39 293.923 565.894C302.648 569.229 311.372 572.146 320.096 574.508C369.364 588.402 418.631 587.985 465.503 575.064C514.086 561.726 559.761 538.662 607.317 517.405C631.438 506.568 655.387 496.564 679.165 487.395C762.988 455.022 855.535 433.209 946.714 427.79C991.704 425.289 1034.47 424.873 1075.36 430.847C1125.14 438.072 1167.56 452.799 1211.35 461.691C1220.93 463.636 1230.68 465.303 1240.78 466.554C1276.36 470.861 1316.05 470.166 1352.65 453.911C1403.12 431.542 1437.33 386.248 1479.24 353.042C1484.89 348.596 1490.71 344.289 1496.69 340.26C1574.87 286.908 1679.56 267.873 1782.2 283.573C1792.3 285.102 1802.39 286.908 1812.31 289.131C1912.73 310.944 2006.47 370.965 2065.83 453.216" stroke="#CDCDDB" stroke-width="0.5" stroke-miterlimit="10"/>
<path d="M-264.609 545.053C-211.066 474.473 -117.321 438.072 -24.2607 444.463C-4.41696 445.852 15.5978 448.909 35.0994 454.188C93.4331 469.888 147.832 501.705 202.574 534.911C232.681 553.112 263.131 571.035 296.318 583.539C305.043 586.874 313.767 589.652 322.491 592.153C371.93 605.908 421.368 605.491 468.069 591.875C516.31 577.704 561.472 553.945 609.028 532.41C633.149 521.434 657.269 511.569 681.218 502.677C765.554 471.278 858.786 451.965 950.135 446.825C995.468 444.324 1038.23 443.49 1078.78 448.075C1128.39 453.633 1170.13 465.859 1213.41 472.25C1222.82 473.64 1232.4 474.89 1242.32 475.585C1277.21 478.224 1316.22 476.279 1352.48 459.607C1402.61 436.543 1437.85 391.944 1480.44 359.433C1486.26 355.126 1492.07 350.958 1498.23 346.928C1577.61 294.966 1682.47 277.738 1785.28 293.576C1795.38 295.105 1805.47 297.05 1815.56 299.134C1916.32 320.808 2010.58 380.551 2070.79 462.663" stroke="#CDCDDB" stroke-width="0.5" stroke-miterlimit="10"/>
<path d="M-260.846 573.119C-209.184 501.566 -116.979 463.219 -24.4316 467.248C-4.58784 468.082 15.4269 470.722 35.0996 475.446C93.7755 489.617 149.201 520.045 204.627 552.834C235.077 570.757 265.697 588.541 299.055 601.045C307.78 604.38 316.504 607.158 325.4 609.659C375.009 623.414 424.618 622.858 470.977 608.548C518.876 593.682 563.525 569.09 610.91 547.415C635.202 536.3 659.322 526.575 683.442 517.961C768.291 487.394 862.207 470.722 953.728 465.859C999.402 463.497 1042.17 461.969 1082.37 465.303C1131.64 469.332 1173.04 478.78 1215.46 482.948C1224.7 483.782 1234.11 484.616 1243.69 484.893C1277.9 485.866 1316.39 482.532 1352.31 465.442C1402.26 441.684 1438.36 397.78 1481.64 366.102C1487.46 361.795 1493.44 357.766 1499.6 354.014C1580.17 303.58 1685.38 287.88 1788.36 303.858C1798.45 305.386 1808.55 307.331 1818.64 309.415C1919.91 331.09 2014.51 390.277 2075.58 472.25" stroke="#CDCDDB" stroke-width="0.5" stroke-miterlimit="10"/>
<path d="M-257.082 601.184C-207.131 528.659 -116.465 488.506 -24.4314 490.173C-4.58765 490.59 15.4271 492.674 35.2709 496.842C94.4599 509.485 150.741 538.523 206.68 570.896C237.301 588.541 268.264 606.325 301.793 618.69C310.517 621.886 319.413 624.803 328.137 627.304C377.917 641.059 427.698 640.364 473.886 625.22C521.613 609.52 565.577 584.095 612.963 562.281C637.254 551.028 661.717 541.441 685.837 533.105C771.2 503.511 865.799 489.339 957.491 484.615C1003.51 482.392 1046.27 480.169 1086.13 482.115C1135.06 484.476 1175.94 491.284 1217.85 493.091C1226.92 493.507 1236.16 493.646 1245.57 493.507C1279.1 492.813 1316.9 488.228 1352.66 470.722C1402.44 446.269 1439.21 402.92 1483.35 372.076C1489.34 367.908 1495.5 364.018 1501.65 360.266C1583.42 311.36 1688.8 297.328 1792.13 313.444C1802.22 314.973 1812.48 316.918 1822.58 319.002C1924.19 340.537 2019.13 399.447 2081.4 481.142" stroke="#CDCDDB" stroke-width="0.5" stroke-miterlimit="10"/>
<path d="M-253.148 629.249C-204.908 555.751 -115.953 515.599 -24.2612 512.959C-4.4175 512.403 15.5973 514.348 35.441 518.099C94.9722 529.214 152.28 556.863 208.903 588.819C239.866 606.186 271 623.831 304.529 636.335C313.253 639.531 322.149 642.448 331.044 644.949C380.996 658.704 430.947 657.871 476.964 642.032C524.35 625.637 567.801 599.378 615.186 577.426C639.477 566.172 664.111 556.585 688.403 548.527C774.278 519.906 869.562 508.235 961.425 503.789C1007.78 501.705 1050.38 498.926 1090.24 499.482C1138.99 500.315 1179.36 504.484 1220.59 503.789C1229.49 503.65 1238.55 503.372 1247.79 502.677C1280.46 500.315 1317.76 494.48 1353.17 476.418C1402.61 451.27 1440.41 408.617 1485.23 378.467C1491.22 374.438 1497.55 370.548 1503.88 366.935C1586.84 319.419 1692.39 307.053 1795.89 323.448C1806.15 325.115 1816.24 326.921 1826.34 329.006C1928.29 350.402 2023.75 408.895 2086.87 490.451" stroke="#CDCDDB" stroke-width="0.5" stroke-miterlimit="10"/>
<path d="M-249.385 657.454C-203.026 582.983 -115.44 538.94 -24.261 535.884C-4.41727 535.189 15.5975 536.3 35.6123 539.496C95.4857 549.083 153.819 575.342 211.127 606.881C242.261 624.109 273.737 641.615 307.437 653.981C316.333 657.176 325.057 660.094 333.953 662.456C384.246 676.211 434.198 675.238 480.044 658.565C527.087 641.476 569.854 614.383 617.41 592.153C641.702 580.76 666.506 571.313 690.969 563.532C777.357 535.745 873.155 526.714 965.36 522.546C1012.06 520.601 1054.66 517.127 1094.17 516.432C1142.58 515.599 1182.44 517.127 1222.99 514.209C1231.71 513.515 1240.61 512.82 1249.67 511.709C1281.66 507.679 1318.44 500.455 1353.51 481.976C1402.78 456.134 1441.27 414.174 1486.94 384.859C1493.1 380.968 1499.43 377.217 1505.93 373.744C1590.1 327.755 1695.99 317.057 1799.65 333.591C1809.92 335.258 1820.01 337.064 1830.1 339.287C1932.57 360.683 2028.37 418.759 2092.52 500.038" stroke="#CDCDDB" stroke-width="0.5" stroke-miterlimit="10"/>
<path d="M-245.621 685.519C-200.973 610.215 -115.097 564.088 -24.4319 558.808C-4.58816 557.697 15.4267 558.114 35.6125 560.892C95.828 568.951 155.188 593.821 213.009 624.804C244.485 641.754 276.132 659.121 310.003 671.487C318.899 674.682 327.794 677.6 336.69 679.962C387.155 693.717 437.277 692.744 482.952 675.238C529.824 657.315 571.907 629.389 619.463 607.159C643.926 595.627 668.73 586.318 693.364 578.676C780.266 551.862 876.747 545.331 969.123 541.441C1016.17 539.635 1058.76 535.467 1097.94 533.522C1146.18 531.021 1185.52 530.048 1225.38 524.63C1233.93 523.518 1242.66 522.268 1251.55 520.601C1282.86 514.765 1318.95 506.429 1353.85 487.533C1402.78 460.996 1442.29 419.732 1488.82 391.111C1495.15 387.221 1501.48 383.608 1508.15 380.274C1593.35 335.814 1699.58 326.644 1803.59 343.455C1813.85 345.123 1824.11 346.929 1834.21 349.152C1937.02 370.409 2033.33 428.068 2098.33 509.208" stroke="#CDCDDB" stroke-width="0.5" stroke-miterlimit="10"/>
<path d="M-241.857 713.585C-198.92 637.308 -114.584 589.236 -24.4317 581.594C-4.58794 579.927 15.598 579.927 35.7838 582.15C96.5125 588.68 156.728 612.16 215.233 642.727C247.051 659.399 278.698 676.627 312.741 688.993C321.636 692.188 330.532 695.106 339.427 697.468C390.063 711.223 440.185 710.111 485.689 691.91C532.219 673.293 573.789 644.533 621.174 622.025C645.637 610.354 670.612 601.184 695.417 593.821C782.832 567.839 879.998 563.949 972.545 560.337C1019.93 558.669 1062.35 553.945 1101.36 550.611C1149.26 546.582 1188.09 542.969 1227.43 535.05C1235.82 533.383 1244.37 531.577 1252.92 529.492C1283.54 521.99 1318.95 512.403 1353.51 492.952C1402.26 465.581 1442.46 425.15 1489.85 397.363C1496.18 393.612 1502.85 390.138 1509.52 386.804C1595.91 343.733 1702.32 336.369 1806.5 353.32C1816.76 354.987 1827.02 356.932 1837.12 359.016C1940.27 380.274 2037.09 437.516 2102.95 518.516" stroke="#CDCDDB" stroke-width="0.5" stroke-miterlimit="10"/>
<path d="M-238.094 741.789C-197.038 664.54 -114.241 614.522 -24.4315 604.519C-4.58773 602.296 15.5981 601.879 35.784 603.546C96.8548 608.548 158.097 630.639 217.115 660.788C249.104 677.183 281.094 694.411 315.307 706.638C324.202 709.833 333.098 712.612 342.164 715.113C392.971 728.729 443.265 727.617 488.598 708.583C534.786 689.271 575.841 659.677 623.227 637.03C647.689 625.22 672.836 616.189 697.812 609.104C785.74 584.095 883.59 582.706 976.309 579.232C1024.04 577.565 1066.46 572.285 1105.12 567.7C1152.85 562.004 1191.17 555.752 1229.66 545.609C1237.87 543.386 1246.25 541.163 1254.63 538.523C1284.4 529.354 1319.3 518.377 1353.68 498.648C1402.26 470.583 1443.32 430.708 1491.39 403.754C1497.89 400.142 1504.56 396.668 1511.41 393.473C1598.99 351.93 1705.74 346.234 1810.09 363.184C1820.35 364.852 1830.62 366.797 1840.88 368.881C1944.55 390.138 2041.88 447.103 2108.77 527.825" stroke="#CDCDDB" stroke-width="0.5" stroke-miterlimit="10"/>
<path d="M-234.332 769.854C-194.987 691.632 -113.73 639.67 -24.6043 627.443C-4.93162 624.664 15.4254 623.692 35.7823 624.803C97.1952 628.277 159.463 648.979 219.166 678.711C251.497 694.828 283.658 711.917 318.042 724.144C326.938 727.339 336.004 730.118 345.071 732.619C396.22 746.235 446.513 744.984 491.675 725.255C537.692 705.248 578.064 674.682 625.449 652.035C650.083 640.225 675.23 631.195 700.376 624.387C788.818 600.35 887.352 601.462 980.241 598.266C1028.31 596.738 1070.74 590.764 1109.05 584.789C1156.44 577.426 1194.25 568.673 1232.22 556.029C1240.26 553.39 1248.47 550.611 1256.69 547.554C1285.77 536.717 1320.15 524.491 1354.02 504.206C1402.26 475.446 1444.35 436.265 1493.1 410.006C1499.77 406.533 1506.44 403.198 1513.29 400.141C1602.07 359.989 1708.99 355.959 1813.51 373.188C1823.77 374.855 1834.21 376.8 1844.3 378.884C1948.31 399.864 2045.99 456.411 2113.73 536.995" stroke="#CDCDDB" stroke-width="0.5" stroke-miterlimit="10"/>
<path d="M-230.568 797.92C-192.934 718.725 -113.388 664.818 -24.6041 650.229C-4.93144 647.034 15.4255 645.505 35.9535 646.061C97.8796 648.006 161.003 667.319 221.39 696.634C254.064 712.473 286.395 729.563 320.779 741.65C329.675 744.846 338.742 747.624 347.808 750.125C399.128 763.741 449.593 762.352 494.583 741.928C540.258 721.087 580.117 689.826 627.502 666.902C652.136 654.953 677.453 646.061 702.771 639.531C791.726 616.328 890.774 620.08 984.005 617.162C1032.42 615.773 1074.84 609.104 1112.82 601.879C1159.86 592.987 1197.33 581.594 1234.45 566.45C1242.32 563.254 1250.36 560.059 1258.4 556.446C1286.79 543.942 1320.49 530.465 1354.19 509.763C1402.26 480.309 1445.03 441.823 1494.64 416.397C1501.31 412.924 1508.15 409.728 1515.17 406.811C1604.98 368.186 1712.24 365.824 1817.1 383.191C1827.53 384.859 1837.8 386.804 1848.06 388.888C1952.41 409.867 2050.61 465.998 2119.37 546.304" stroke="#CDCDDB" stroke-width="0.5" stroke-miterlimit="10"/>
<path d="M-226.805 826.124C-191.052 745.957 -112.874 689.965 -24.6039 673.154C-4.93123 669.402 15.4257 667.318 35.9537 667.457C98.222 667.874 162.372 685.936 223.272 714.696C256.116 730.257 288.79 747.207 323.346 759.434C332.412 762.629 341.308 765.408 350.545 767.77C402.036 781.386 452.672 779.858 497.492 758.6C542.824 737.065 582.17 704.97 629.384 681.907C654.018 669.819 679.507 661.066 704.995 654.814C794.463 632.584 894.195 638.836 987.598 636.196C1036.35 634.946 1078.61 627.582 1116.58 619.107C1163.45 608.548 1200.23 594.654 1236.84 577.148C1244.54 573.396 1252.41 569.645 1260.28 565.616C1287.99 551.444 1321.01 536.578 1354.54 515.46C1402.26 485.31 1446.06 447.519 1496.35 422.788C1503.19 419.454 1510.21 416.397 1517.22 413.479C1608.23 376.244 1715.83 375.549 1820.86 393.195C1831.3 395.001 1841.56 396.807 1851.83 398.891C1956.52 419.732 2055.22 475.446 2124.85 555.612" stroke="#CDCDDB" stroke-width="0.5" stroke-miterlimit="10"/>
<path d="M-222.869 854.19C-188.827 773.05 -112.36 715.113 -24.6029 696.079C-4.93022 691.772 15.4267 689.271 36.1258 688.854C98.7362 687.742 163.913 704.415 225.497 732.758C258.684 748.041 291.528 764.853 326.255 777.079C335.321 780.275 344.388 783.054 353.454 785.415C405.117 799.031 455.923 797.364 500.572 775.412C545.733 753.182 584.394 720.115 631.609 696.912C656.414 684.686 681.902 676.072 707.734 670.097C797.886 648.701 898.131 657.593 991.704 655.231C1040.8 654.12 1083.05 646.2 1120.69 636.336C1167.22 624.109 1203.66 607.714 1239.58 587.707C1247.11 583.539 1254.8 579.232 1262.5 574.786C1289.36 558.947 1322.03 542.831 1355.05 521.295C1402.61 490.451 1447.08 453.355 1498.23 429.319C1505.25 426.123 1512.26 423.066 1519.44 420.288C1611.65 384.581 1719.42 385.553 1824.63 403.337C1835.06 405.144 1845.33 406.95 1855.76 409.034C1960.97 429.874 2060.02 485.172 2130.49 565.2" stroke="#CDCDDB" stroke-width="0.5" stroke-miterlimit="10"/>
<path d="M-219.105 882.255C-186.774 800.282 -111.847 740.261 -24.6027 718.864C-4.93002 714.002 15.4269 710.945 36.2971 710.111C99.4206 707.471 165.452 722.755 227.721 750.681C261.079 765.686 294.095 782.498 328.992 794.585C338.059 797.781 347.125 800.56 356.363 802.922C408.196 816.537 459.174 814.731 503.48 791.946C548.299 768.882 586.447 735.12 633.662 711.779C658.466 699.413 684.126 690.938 710.129 685.242C800.794 664.818 901.723 676.211 995.468 673.988C1044.73 673.015 1087.16 664.401 1124.45 653.286C1170.81 639.392 1206.74 620.497 1241.8 598.128C1249.16 593.404 1256.69 588.68 1264.04 583.678C1290.22 566.172 1322.21 548.805 1355.05 526.714C1402.26 495.036 1447.77 458.773 1499.77 435.571C1506.79 432.514 1513.97 429.596 1521.33 426.957C1614.73 392.639 1722.67 395.279 1828.22 413.341C1838.66 415.147 1849.09 417.092 1859.35 419.037C1964.9 439.739 2064.46 494.619 2135.97 574.508" stroke="#CDCDDB" stroke-width="0.5" stroke-miterlimit="10"/>
<path d="M-215.342 910.459C-184.892 827.514 -111.504 765.408 -24.6025 741.789C-4.92978 736.509 15.4272 732.897 36.2973 731.508C99.7631 727.34 166.65 741.233 229.603 768.743C263.303 783.47 296.49 800.143 331.558 812.23C340.625 815.426 349.691 818.205 358.929 820.567C411.104 834.183 462.082 832.237 506.218 808.757C550.866 784.999 588.329 750.403 635.544 726.784C660.349 714.279 686.18 705.943 712.353 700.386C803.531 680.934 905.145 694.828 999.061 692.883C1048.67 692.049 1091.09 682.741 1128.04 670.236C1174.06 654.814 1209.64 633.279 1244.03 608.409C1251.21 603.268 1258.57 597.989 1265.75 592.431C1291.24 573.258 1322.55 554.501 1355.22 532.132C1402.26 499.76 1448.45 464.053 1501.31 441.684C1508.5 438.627 1515.68 435.849 1523.21 433.348C1617.64 400.42 1726.09 404.866 1831.81 422.928C1842.25 424.734 1852.68 426.679 1863.12 428.624C1969.01 449.187 2069.08 503.789 2141.44 583.4" stroke="#CDCDDB" stroke-width="0.5" stroke-miterlimit="10"/>
<path d="M-211.58 938.524C-182.841 854.606 -110.993 790.556 -24.6042 764.714C-4.93157 758.878 15.4254 754.71 36.4666 752.904C100.274 747.069 168.188 759.712 231.825 786.805C265.696 801.254 299.225 817.927 334.465 829.875C343.531 832.932 352.769 835.85 362.006 838.212C414.353 851.689 465.502 849.882 509.466 825.568C553.772 801.115 590.551 765.547 637.766 741.928C662.742 729.424 688.573 721.087 714.917 715.808C806.609 697.19 908.736 713.724 1002.99 712.056C1052.94 711.223 1095.2 701.358 1131.98 687.603C1177.65 670.514 1212.72 646.478 1246.59 619.107C1253.61 613.411 1260.79 607.575 1267.8 601.74C1292.61 580.899 1323.23 560.892 1355.56 537.968C1402.26 504.9 1449.48 469.888 1503.02 448.214C1510.21 445.296 1517.73 442.656 1525.09 440.156C1620.72 408.756 1729.34 414.73 1835.23 433.07C1845.67 434.876 1856.1 436.821 1866.54 438.766C1972.94 459.329 2073.36 513.376 2146.74 592.848" stroke="#CDCDDB" stroke-width="0.5" stroke-miterlimit="10"/>
<path d="M-207.816 966.59C-180.788 881.699 -110.651 815.565 -24.7751 787.499C-5.10244 781.108 15.4256 776.523 36.4668 774.161C100.788 766.798 169.557 778.191 233.707 804.728C267.92 818.899 301.62 835.433 336.86 847.381C345.926 850.438 355.164 853.217 364.402 855.718C416.919 869.195 468.239 867.249 512.032 842.102C556.167 816.954 592.262 780.552 639.477 756.655C664.452 744.012 690.455 735.815 716.97 730.813C809.175 713.168 911.986 732.202 1006.41 730.813C1056.71 730.118 1098.96 719.559 1135.4 704.554C1180.9 685.797 1215.46 659.26 1248.47 629.527C1255.32 623.275 1262.33 617.023 1269.17 610.632C1293.29 588.124 1323.23 566.728 1355.39 543.525C1401.92 509.763 1449.99 475.446 1504.22 454.605C1511.57 451.826 1519.1 449.187 1526.63 446.825C1623.45 416.814 1732.25 424.595 1838.48 443.073C1848.92 444.88 1859.52 446.825 1869.96 448.909C1976.7 469.332 2077.63 523.101 2151.88 602.296" stroke="#CDCDDB" stroke-width="0.5" stroke-miterlimit="10"/>
<path d="M-204.053 994.794C-178.906 908.931 -110.308 840.712 -24.7749 810.563C-5.10218 803.616 15.4258 798.475 36.467 795.558C101.13 786.666 170.925 796.669 235.76 822.65C270.315 836.544 304.186 852.939 339.597 864.888C348.664 867.944 357.901 870.723 367.31 873.085C419.999 886.562 471.49 884.478 515.112 858.635C558.905 832.654 594.487 795.558 641.701 771.521C666.677 758.739 692.85 750.681 719.536 745.957C812.254 729.146 915.75 750.82 1010.35 749.708C1060.99 749.153 1103.24 737.899 1139.33 721.643C1184.5 701.219 1218.71 672.181 1251.04 639.948C1257.71 633.279 1264.55 626.471 1271.23 619.524C1294.66 595.349 1324.09 572.702 1355.9 548.944C1402.09 514.487 1451.02 480.864 1506.1 460.718C1513.63 457.94 1521.15 455.578 1528.85 453.355C1626.7 424.733 1736.01 434.181 1842.42 452.938C1853.02 454.744 1863.46 456.689 1873.89 458.773C1980.98 479.197 2082.42 532.549 2157.52 611.604" stroke="#CDCDDB" stroke-width="0.5" stroke-miterlimit="10"/>
<path d="M-200.289 1022.86C-176.853 936.024 -109.795 865.86 -24.7747 833.349C-5.27305 825.846 15.426 820.289 36.6383 816.815C101.644 806.395 172.465 815.009 237.984 840.574C272.71 854.189 306.924 870.584 342.505 882.533C351.743 885.589 360.981 888.368 370.218 890.73C423.078 904.207 474.74 901.984 518.02 875.447C561.471 848.771 596.539 810.702 643.754 786.666C668.901 773.745 695.074 765.825 721.931 761.379C815.163 745.54 919.342 769.715 1014.11 768.882C1065.09 768.465 1107.17 756.655 1143.27 739.01C1188.09 717.058 1221.96 685.38 1253.44 650.646C1259.94 643.421 1266.44 636.196 1272.94 628.833C1295.52 602.99 1324.43 579.093 1355.9 554.918C1401.92 519.628 1451.7 486.839 1507.47 467.387C1515 464.748 1522.69 462.386 1530.56 460.302C1629.61 433.209 1739.09 444.324 1845.67 463.219C1856.27 465.025 1866.71 466.971 1877.32 469.055C1984.92 489.34 2086.7 542.275 2162.83 621.191" stroke="#CDCDDB" stroke-width="0.5" stroke-miterlimit="10"/>
<path d="M-196.525 1050.92C-174.8 963.116 -109.452 890.869 -24.9455 856.135C-5.44393 848.076 15.2552 841.963 36.6385 838.073C101.986 826.124 173.834 833.349 239.866 858.496C274.934 871.973 309.148 888.09 344.901 900.039C354.138 903.095 363.376 905.874 372.784 908.236C425.986 921.713 477.648 919.49 520.757 891.98C564.037 864.61 598.421 825.707 645.465 801.393C670.611 788.333 696.956 780.552 723.984 776.384C817.729 761.518 922.593 788.194 1017.53 787.499C1068.85 787.221 1110.94 774.717 1146.69 755.822C1191.34 732.202 1224.7 698.024 1255.49 660.927C1261.82 653.286 1268.15 645.505 1274.48 637.586C1296.37 610.076 1324.6 584.79 1355.9 560.198C1401.58 524.213 1452.22 491.979 1508.84 473.501C1516.54 471 1524.41 468.777 1532.27 466.693C1632.52 440.989 1742.17 453.772 1849.09 472.945C1859.7 474.89 1870.3 476.835 1880.74 478.78C1988.68 498.926 2090.98 551.583 2167.96 630.222" stroke="#CDCDDB" stroke-width="0.5" stroke-miterlimit="10"/>
<path d="M-192.59 1079.13C-172.746 990.487 -108.938 916.017 -24.7734 879.198C-5.27184 870.584 15.4272 864.054 36.9816 859.608C102.842 845.992 175.546 851.966 242.262 876.697C277.501 889.896 312.057 905.874 347.981 917.823C357.218 920.879 366.456 923.658 375.865 926.02C429.237 939.497 481.071 937.135 524.008 908.931C567.117 880.865 600.817 841.129 647.861 816.676C673.007 803.616 699.523 795.836 726.722 791.945C820.98 777.913 926.357 807.229 1021.64 806.812C1073.3 806.673 1115.21 793.335 1150.8 773.189C1195.1 747.763 1228.12 711.084 1258.23 671.626C1264.38 663.428 1270.71 655.092 1276.7 646.756C1298.09 617.579 1325.46 591.042 1356.42 566.033C1401.75 529.354 1453.41 497.815 1510.89 480.031C1518.76 477.669 1526.63 475.446 1534.67 473.501C1635.94 449.048 1746.11 463.775 1853.03 482.948C1863.63 484.894 1874.24 486.839 1884.67 488.784C1992.96 508.93 2095.77 561.031 2173.78 639.531" stroke="#CDCDDB" stroke-width="0.5" stroke-miterlimit="10"/>
<path d="M-188.828 1107.19C-170.695 1017.58 -108.598 941.025 -24.7752 901.984C-5.27356 892.953 15.4255 885.728 36.9799 880.865C103.183 865.582 176.912 870.445 244.313 894.62C279.895 907.541 314.621 923.519 350.716 935.329C359.954 938.386 369.362 941.164 378.771 943.526C432.315 957.003 484.319 954.502 527.086 925.464C569.853 896.704 603.04 855.996 650.083 831.404C675.23 818.205 701.916 810.702 729.287 806.812C824.058 793.752 930.119 825.568 1025.57 825.429C1077.58 825.429 1119.49 811.536 1154.73 790C1198.69 763.046 1231.37 723.727 1260.62 681.768C1266.61 673.015 1272.77 664.262 1278.58 655.37C1299.11 624.526 1325.97 596.599 1356.76 571.174C1401.75 533.661 1454.27 502.955 1512.6 485.866C1520.47 483.504 1528.51 481.559 1536.72 479.753C1639.19 456.828 1749.53 473.084 1856.79 492.535C1867.39 494.48 1878 496.425 1888.61 498.37C1997.23 518.377 2100.56 570.201 2179.42 648.423" stroke="#CDCDDB" stroke-width="0.5" stroke-miterlimit="10"/>
<path d="M-185.064 1135.26C-168.813 1044.67 -108.256 966.173 -24.775 924.769C-5.27341 915.183 15.4257 907.541 37.1511 902.123C103.696 885.311 178.452 888.785 246.366 912.543C282.29 925.186 317.187 941.025 353.282 952.835C362.52 955.891 371.929 958.67 381.337 961.032C435.052 974.37 487.227 971.869 529.823 942.137C572.248 912.543 604.921 871.14 651.965 846.409C677.283 833.071 703.969 825.707 731.511 822.095C826.795 809.868 933.54 844.463 1029.34 844.463C1081.68 844.463 1123.6 830.014 1158.49 807.228C1202.12 778.607 1234.45 736.787 1263.01 692.466C1269 683.296 1274.65 673.987 1280.46 664.678C1300.31 632.167 1326.48 602.99 1357.1 577.148C1401.92 538.94 1455.29 508.929 1514.31 492.674C1522.35 490.451 1530.39 488.506 1538.6 486.838C1642.27 465.303 1752.78 483.365 1860.38 502.955C1870.99 504.9 1881.59 506.845 1892.2 508.79C2001.34 528.797 2105 580.065 2184.89 658.148" stroke="#CDCDDB" stroke-width="0.5" stroke-miterlimit="10"/>
<path d="M-181.301 1163.46C-166.76 1071.9 -108.084 991.182 -24.9459 947.833C-5.61533 937.691 15.2548 929.493 37.1513 923.658C104.038 905.318 179.821 907.402 248.419 930.744C284.514 943.109 319.753 958.948 356.02 970.619C365.257 973.675 374.666 976.454 384.246 978.677C438.303 992.015 490.307 989.375 532.732 958.948C574.985 928.66 606.974 886.423 653.847 861.414C679.165 847.937 706.022 840.712 733.735 837.378C829.532 826.124 936.962 863.22 1032.93 863.498C1085.62 863.637 1127.53 848.493 1162.09 824.457C1205.54 794.168 1237.36 749.847 1265.07 703.025C1270.88 693.3 1276.36 683.574 1282 673.709C1301.16 639.531 1326.82 609.104 1356.93 582.705C1401.58 543.803 1455.81 514.487 1515.51 498.926C1523.72 496.842 1531.93 495.036 1540.14 493.369C1645.01 473.362 1755.86 492.952 1863.46 512.82C1874.07 514.765 1884.84 516.71 1895.45 518.655C2004.93 538.523 2109.11 589.513 2189.85 667.457" stroke="#CDCDDB" stroke-width="0.5" stroke-miterlimit="10"/>
<path d="M-177.537 1191.53C-164.707 1099 -107.571 1016.33 -24.9457 970.619C53.9161 926.993 158.609 918.24 250.472 948.528C296.146 963.672 340.282 984.652 386.983 996.183C441.211 1009.52 493.386 1006.74 535.64 975.482C577.551 944.499 609.027 901.289 655.9 876.28C768.975 815.982 912.671 881.699 1036.69 882.394C1169.95 883.088 1232.74 782.22 1283.89 682.602C1333.32 586.457 1429.98 519.628 1542.2 499.899C1658.69 479.475 1781.35 507.262 1899.21 528.52C2009.04 548.388 2113.56 598.961 2195.33 676.627" stroke="#CDCDDB" stroke-width="0.5" stroke-miterlimit="10"/>
</g>
<mask id="mask2_8036_25750" style="mask-type:luminance" maskUnits="userSpaceOnUse" x="-68" y="-37" width="2054" height="1113">
<path d="M1985.6 -36.3999H-67.1992V1075.1H1985.6V-36.3999Z" fill="white"/>
</mask>
<g mask="url(#mask2_8036_25750)">
<path d="M-333.549 509.069C-239.121 432.931 -100.043 402.643 29.454 422.928C97.7097 433.626 156.043 455.161 206.337 492.813C259.026 532.271 328.821 556.724 400.498 559.503C473.543 562.421 545.904 544.081 610.568 516.432C713.55 472.389 794.122 399.308 920.369 402.504C972.031 403.754 1024.89 422.372 1053.46 457.384C1084.42 495.592 1077.07 553.529 1031.9 582.567C983.151 613.828 907.026 591.459 851.6 590.764C789.674 589.93 731.34 607.298 690.798 649.812C645.636 697.051 645.465 758.462 615.699 814.453C594.829 853.912 561.471 888.646 516.994 902.679C460.029 920.741 404.774 901.15 349.862 878.504C296.147 856.413 232.168 842.936 175.032 843.213C80.4319 843.769 -5.95676 877.809 -70.62 938.525C-92.3454 958.948 -111.334 982.012 -126.901 1007.02C-136.31 1022.16 -168.812 1067.46 -163.338 1086.35C-199.262 962.7 -235.87 838.906 -272.479 715.252C-277.953 697.051 -346.379 519.489 -333.549 509.069Z" fill="#06044B"/>
<path d="M2305.33 452.799L2302.42 453.355C2267.01 528.937 2165.05 553.39 2075.24 541.997C1985.26 530.743 1899.04 492.674 1809.57 476.002C1676.66 451.271 1542.54 477.391 1434.6 542.692C1299.97 624.248 1219.22 750.959 1083.4 832.932C1030.37 865.027 964.334 893.926 899.671 906.43C810.203 923.658 720.393 897.955 697.983 819.872C667.875 715.391 786.938 652.591 898.473 646.061C995.981 640.365 1095.88 632.862 1142.76 552.001C1189.8 470.722 1209.81 383.886 1286.11 315.251C1352.83 255.091 1443.83 215.633 1544.25 211.743C1617.98 208.825 1685.55 227.165 1757.4 238.002C1886.73 257.592 2013.66 274.403 2136.31 226.887C2186.95 207.297 2232.79 180.204 2271.8 147.554C2291.47 131.159 2309.43 113.375 2325.51 94.4794C2337.31 80.4468 2352.88 41.8221 2368.79 33.208C2366.05 34.7363 2368.28 33.6248 2365.54 35.0142C2366.74 35.7089 2367.76 34.5974 2369.13 35.2921L2305.33 452.799Z" fill="#06044B"/>
</g>
<mask id="mask3_8036_25750" style="mask-type:luminance" maskUnits="userSpaceOnUse" x="-68" y="-37" width="2054" height="1113">
<path d="M1985.6 -36.3999H-67.1992V1075.1H1985.6V-36.3999Z" fill="white"/>
</mask>
<g mask="url(#mask3_8036_25750)">
<path d="M-97.9902 825.29C-62.7505 745.957 42.6266 691.354 145.951 698.718C219.51 703.998 289.989 737.065 363.206 728.868C452.331 719.003 511.178 654.953 571.051 607.297C646.15 547.554 719.537 522.545 824.743 548.11C902.75 567.005 967.071 610.493 1051.06 610.632C1205.54 610.91 1281.15 479.614 1330.59 380.551C1380.37 280.794 1429.64 175.202 1555.71 124.073C1659.04 82.1136 1762.19 86.5596 1869.62 113.236C1921.28 126.018 1971.92 134.632 2014.68 164.504" stroke="#61E987" stroke-miterlimit="10"/>
<path d="M2019.47 169.228C1975.68 139.773 1924.19 130.742 1871.84 117.96C1833.35 108.512 1795.38 101.982 1757.74 99.203C1688.8 94.0623 1620.89 102.121 1553.32 129.63C1532.45 138.244 1513.46 148.248 1496.35 159.502C1409.28 217.022 1368.91 306.081 1325.97 390.277C1274.82 490.729 1194.08 620.497 1038.06 618.968C953.899 618.274 889.236 575.342 811.572 555.613C742.29 538.246 686.693 542.136 635.031 562.976C608.858 573.536 583.882 588.541 558.393 607.159C497.836 651.619 437.791 711.778 348.837 720.809C326.769 723.032 305.044 721.782 283.318 718.864C232.682 711.917 182.731 695.801 131.411 693.161C28.2577 687.603 -75.9219 743.039 -110.648 822.651" stroke="#61E987" stroke-miterlimit="10"/>
<path d="M2023.92 173.812C1979.1 144.774 1926.93 135.327 1873.72 122.544C1834.72 113.097 1796.06 106.428 1757.91 103.788C1687.95 98.786 1618.66 106.983 1550.75 134.91C1529.54 143.663 1510.55 153.805 1493.27 165.476C1405.34 224.247 1365.66 314.834 1321.52 400.002C1268.66 501.983 1182.61 629.944 1025.06 627.165C941.069 625.915 875.892 583.4 798.399 563.115C729.801 545.331 674.205 547.693 622.542 566.588C596.369 576.036 571.222 589.93 545.562 607.158C484.492 648.423 423.25 704.692 334.295 713.029C312.228 715.113 290.331 713.862 268.605 710.945C217.799 704.415 167.676 689.409 116.527 687.603C13.5451 684.13 -89.4371 740.26 -123.65 820.149" stroke="#61E987" stroke-miterlimit="10"/>
<path d="M2028.37 178.397C1982.52 149.776 1929.66 140.05 1875.61 127.129C1836.09 117.681 1796.91 111.012 1758.08 108.373C1687.09 103.371 1616.61 111.846 1548.01 140.328C1526.63 149.22 1507.3 159.641 1489.85 171.45C1401.07 231.471 1362.06 323.726 1316.73 409.589C1261.99 513.098 1170.98 638.975 1011.89 635.363C927.896 633.556 862.378 591.458 785.056 570.479C717.142 552.139 661.717 553.39 610.055 570.201C583.881 578.676 558.563 591.319 532.903 607.158C471.148 645.227 408.88 697.468 319.754 705.109C297.687 706.915 275.79 705.665 253.894 703.025C202.916 696.773 152.622 683.018 101.644 682.185C-0.824585 680.517 -102.609 737.482 -136.48 817.649" stroke="#61E987" stroke-miterlimit="10"/>
<path d="M2032.82 182.843C1985.94 154.639 1932.23 144.496 1877.66 131.575C1837.63 122.127 1797.94 115.458 1758.43 112.819C1686.41 107.956 1614.73 116.709 1545.62 145.469C1524.06 154.5 1504.39 165.059 1486.77 177.147C1396.96 238.279 1358.81 332.201 1312.28 419.037C1255.83 523.935 1159.69 648.006 999.061 643.421C915.067 640.92 849.035 599.378 772.055 577.842C704.655 558.947 649.4 558.947 597.738 573.674C571.565 581.177 546.247 592.57 520.245 607.019C457.806 641.754 394.511 690.243 305.385 697.051C283.318 698.718 261.25 697.468 239.354 694.967C188.205 689.131 137.74 676.488 86.9333 676.627C-15.1935 676.766 -115.952 734.564 -149.139 815.009" stroke="#61E987" stroke-miterlimit="10"/>
<path d="M2037.44 187.428C1989.54 159.641 1935.14 149.081 1879.71 136.299C1839.17 126.851 1798.8 120.182 1758.77 117.543C1685.72 112.68 1612.68 121.711 1543.05 150.888C1521.16 160.058 1501.48 170.895 1483.52 183.26C1392.86 245.643 1355.39 341.093 1307.67 428.763C1249.33 535.189 1148.23 657.454 985.889 651.618C901.895 648.701 835.521 607.575 758.712 585.345C691.996 566.033 636.913 564.644 585.08 577.287C558.735 583.678 533.418 593.959 507.244 607.019C444.292 638.558 379.8 683.157 290.674 689.132C268.606 690.66 246.539 689.409 224.642 687.047C173.322 681.49 122.858 669.958 71.8797 671.07C-30.076 673.154 -129.466 731.785 -162.311 812.508" stroke="#61E987" stroke-miterlimit="10"/>
<path d="M2041.88 192.013C1992.96 164.642 1937.87 153.805 1881.59 140.884C1840.54 131.436 1799.65 124.767 1758.94 122.127C1684.87 117.404 1610.62 126.573 1540.32 156.167C1518.25 165.476 1498.23 176.452 1480.1 189.095C1388.41 252.729 1351.8 349.846 1302.7 438.21C1242.66 546.165 1136.26 666.623 972.545 659.677C888.551 656.203 821.835 615.494 745.197 592.57C679.166 572.841 624.082 570.062 572.42 580.621C546.076 586.04 520.587 595.071 494.242 606.741C430.435 635.085 365.087 675.793 275.961 681.073C253.723 682.323 231.826 681.073 209.759 678.85C158.267 673.709 107.632 663.289 56.825 665.373C-44.7886 669.402 -142.981 728.729 -175.312 809.729" stroke="#61E987" stroke-miterlimit="10"/>
<path d="M2046.33 196.598C1996.38 169.644 1940.44 158.39 1883.65 145.469C1842.08 136.021 1800.68 129.352 1759.28 126.712C1684.18 121.989 1608.74 131.436 1537.92 161.586C1515.68 171.033 1495.32 182.287 1477.02 195.07C1384.47 259.953 1348.55 358.599 1298.25 447.936C1236.33 557.28 1124.96 675.932 959.543 668.013C875.72 663.984 808.491 623.831 732.024 600.211C666.506 580.065 611.764 575.897 559.931 584.373C533.587 588.68 507.927 596.599 481.412 606.88C416.919 632.028 350.546 668.708 261.42 673.293C239.181 674.404 217.114 673.154 195.046 671.07C143.384 666.207 92.577 657.037 41.9413 660.093C-59.3302 665.929 -156.496 726.089 -188.314 807.367" stroke="#61E987" stroke-miterlimit="10"/>
<path d="M2050.78 201.044C1999.8 174.646 1943.18 162.836 1885.53 149.915C1843.45 140.467 1801.36 133.798 1759.45 131.158C1683.16 126.573 1606.52 136.299 1535.18 166.726C1512.6 176.313 1492.25 187.706 1473.6 200.905C1380.03 266.9 1344.96 367.213 1293.47 457.384C1229.83 568.256 1113.33 685.102 946.372 675.932C862.549 671.347 794.978 631.611 718.682 607.436C653.848 586.734 599.106 581.316 547.444 587.707C520.929 591.041 495.269 597.71 468.753 606.602C403.577 628.416 336.177 661.344 247.051 665.095C224.812 666.068 202.745 664.817 180.506 662.872C128.673 658.426 77.695 650.368 27.2303 654.258C-73.699 662.038 -169.667 722.893 -200.973 804.588" stroke="#61E987" stroke-miterlimit="10"/>
<path d="M2055.23 205.629C2003.22 179.648 1945.91 167.56 1887.41 154.5C1844.81 145.052 1802.22 138.383 1759.62 135.882C1682.3 131.297 1604.46 141.301 1532.45 172.145C1509.69 181.871 1489 193.541 1470.35 206.879C1375.92 274.125 1341.54 375.966 1288.85 467.109C1223.33 579.51 1101.87 694.55 933.37 684.269C849.548 679.128 781.463 639.948 705.51 614.939C641.36 593.82 586.618 586.873 534.956 591.319C508.441 593.542 482.61 599.1 455.923 606.603C389.892 625.22 321.636 654.258 232.51 657.315C210.272 658.009 188.033 656.898 165.794 655.092C113.79 650.924 62.641 644.116 12.3474 648.979C-88.4109 658.704 -183.011 720.392 -213.803 802.227" stroke="#61E987" stroke-miterlimit="10"/>
<path d="M2059.84 210.214C2006.81 184.649 1948.65 172.145 1889.46 159.224C1846.35 149.776 1803.24 142.968 1760.13 140.606C1681.79 136.16 1602.75 146.303 1530.22 177.702C1507.3 187.567 1486.26 199.377 1467.44 212.993C1371.98 281.489 1338.46 384.997 1284.57 476.835C1217.34 590.625 1090.75 703.998 920.54 692.605C836.717 686.908 768.29 648.145 692.508 622.58C628.871 601.045 574.472 592.709 522.81 595.071C496.295 596.321 470.292 600.628 443.435 606.741C376.719 622.025 307.437 647.311 218.311 649.534C196.073 650.09 173.834 648.839 151.595 647.172C99.4199 643.421 48.271 637.586 -2.02262 643.56C-102.439 655.092 -196.012 717.614 -226.291 799.726" stroke="#61E987" stroke-miterlimit="10"/>
<path d="M2064.29 214.799C2010.23 189.651 1951.39 176.73 1891.51 163.809C1847.72 154.361 1804.1 147.553 1760.48 145.191C1681.1 140.745 1600.7 151.304 1527.66 182.982C1504.39 193.125 1483.35 205.073 1464.19 218.967C1367.88 288.714 1335.03 393.75 1279.95 486.561C1210.67 601.601 1078.95 713.307 907.197 700.663C823.374 694.55 754.606 656.203 678.994 629.805C616.042 607.853 561.642 598.127 509.98 598.405C483.294 598.544 457.292 601.74 430.263 606.464C362.692 618.412 292.554 639.809 203.429 641.337C181.19 641.615 158.78 640.503 136.542 638.975C84.1952 635.502 32.8752 630.917 -17.2473 637.725C-117.321 651.202 -209.697 714.418 -239.463 796.947" stroke="#61E987" stroke-miterlimit="10"/>
<path d="M2068.74 219.245C2013.66 194.514 1954.13 181.315 1893.4 168.255C1849.09 158.807 1804.95 151.999 1760.65 149.637C1680.25 145.33 1598.65 156.028 1524.92 188.123C1501.48 198.404 1480.1 210.492 1460.77 224.663C1363.6 295.522 1331.44 402.226 1274.99 495.869C1204.17 612.577 1067.32 722.615 894.025 708.722C810.374 702.053 741.092 664.262 665.651 637.169C603.383 614.8 549.155 603.685 497.321 601.879C470.635 600.906 444.291 602.851 417.262 606.325C348.836 614.939 277.843 632.584 188.717 633.279C166.479 633.418 144.069 632.306 121.659 630.917C69.1416 627.86 17.6505 624.387 -32.3009 632.167C-132.033 647.589 -223.211 711.639 -252.635 794.307" stroke="#61E987" stroke-miterlimit="10"/>
<path d="M2073.19 223.83C2017.08 199.516 1956.69 185.9 1895.28 172.84C1850.46 163.392 1805.81 156.584 1760.82 154.222C1679.39 149.915 1596.6 160.891 1522.35 193.542C1498.75 203.962 1477.02 216.327 1457.52 230.638C1359.33 302.747 1328.02 411.118 1270.37 505.595C1197.84 623.831 1055.85 732.063 881.024 717.058C797.372 709.833 727.577 672.598 652.479 644.811C590.724 622.025 536.666 609.521 485.004 605.63C458.318 603.685 431.803 604.38 404.774 606.464C335.492 611.744 263.644 625.637 174.518 625.637C152.109 625.637 129.87 624.387 107.289 623.275C54.6005 620.497 2.9384 618.274 -46.842 627.027C-146.403 644.255 -236.384 709.139 -265.123 792.084" stroke="#61E987" stroke-miterlimit="10"/>
<path d="M2077.64 228.415C2020.5 204.517 1959.43 190.485 1897.16 177.425C1851.83 167.838 1806.49 161.169 1760.99 158.807C1678.54 154.5 1594.37 165.754 1519.62 198.821C1495.84 209.38 1473.77 221.885 1454.1 236.473C1355.05 309.832 1324.43 419.732 1265.58 515.043C1191.17 634.807 1044.22 741.233 867.852 725.116C784.2 717.475 714.063 680.517 639.136 652.035C578.065 628.832 524.008 614.8 472.346 608.964C445.659 605.908 418.973 605.352 391.773 606.186C321.636 608.131 248.933 618.273 159.807 617.44C137.397 617.162 114.987 616.05 92.4065 614.939C39.5469 612.438 -12.2862 611.465 -61.8956 621.052C-161.114 640.225 -249.898 705.804 -278.295 789.166" stroke="#61E987" stroke-miterlimit="10"/>
<path d="M2082.25 233C2024.09 209.658 1962.16 195.209 1899.38 182.149C1853.54 172.562 1807.69 165.893 1761.5 163.531C1678.02 159.363 1592.66 170.895 1517.22 204.24C1493.1 214.938 1471.03 227.72 1451.02 242.586C1350.94 317.196 1321.18 428.624 1261.13 524.769C1185.01 645.922 1032.93 750.681 855.021 733.314C771.37 725.116 700.89 688.715 626.134 659.538C565.577 635.918 511.862 620.496 460.199 612.577C433.342 608.548 406.656 606.742 379.285 606.186C308.292 604.658 234.734 611.188 145.437 609.52C123.027 609.104 100.617 607.992 78.0365 607.02C25.0058 604.935 -26.8273 604.935 -76.4367 615.634C-175.313 636.752 -262.899 703.025 -290.783 786.666" stroke="#61E987" stroke-miterlimit="10"/>
<path d="M2086.7 237.584C2027.51 214.66 1964.9 199.793 1901.27 186.733C1854.91 177.147 1808.55 170.478 1761.68 168.116C1677.17 163.948 1590.61 175.757 1514.66 209.519C1490.36 220.356 1467.95 233.277 1447.94 248.422C1347.01 324.143 1317.93 437.377 1256.69 534.355C1178.68 657.037 1021.47 760.128 842.021 741.511C758.37 732.897 687.548 696.912 612.963 666.901C553.09 642.865 499.375 626.054 447.713 616.05C420.855 610.91 393.998 607.853 366.456 606.047C294.608 601.045 220.194 603.824 130.897 601.462C108.487 600.906 85.9066 599.656 63.3258 598.961C10.1241 597.155 -41.8801 598.405 -91.3184 610.076C-190.024 633.001 -276.413 700.246 -303.783 784.026" stroke="#61E987" stroke-miterlimit="10"/>
<path d="M2091.15 242.03C2030.93 219.523 1967.64 204.239 1903.15 191.179C1856.28 181.593 1809.23 174.924 1761.85 172.562C1676.31 168.533 1588.39 180.481 1511.92 214.799C1487.46 225.775 1464.7 238.974 1444.52 254.257C1342.56 331.228 1314.34 445.991 1251.73 543.803C1172.01 668.013 1009.67 769.437 828.507 749.569C745.027 740.399 673.521 704.97 599.278 674.265C539.918 649.812 486.374 631.472 434.712 619.524C407.854 613.271 380.655 609.103 353.284 605.908C280.752 597.433 205.312 596.599 116.015 593.542C93.605 592.709 71.0241 591.597 48.2723 591.041C-5.10053 589.652 -57.2759 592.014 -106.543 604.518C-204.906 629.388 -290.098 697.329 -316.955 781.525" stroke="#61E987" stroke-miterlimit="10"/>
<path d="M2095.6 246.616C2034.35 224.525 1970.2 208.964 1905.03 195.765C1857.64 186.178 1810.09 179.37 1762.19 177.286C1675.63 173.257 1586.5 185.622 1509.52 220.218C1484.72 231.333 1461.97 244.671 1441.44 260.371C1338.63 338.592 1311.09 454.883 1247.28 553.668C1165.68 679.267 998.375 779.024 815.676 757.906C732.195 748.319 660.348 713.307 586.276 681.907C527.6 657.037 474.227 637.308 422.565 623.275C395.536 616.051 368.337 610.493 340.795 606.047C267.407 594.098 191.112 589.652 101.815 585.762C79.4051 584.79 56.6533 583.678 33.9014 583.261C-19.6425 582.15 -71.9888 585.762 -121.085 599.239C-219.106 626.054 -303.1 694.689 -329.615 779.163" stroke="#61E987" stroke-miterlimit="10"/>
<path d="M2100.22 251.201C2037.95 229.526 1973.11 213.549 1907.25 200.35C1859.35 190.763 1811.28 183.955 1762.7 181.871C1674.94 177.981 1584.62 190.485 1507.13 225.497C1482.15 236.751 1459.06 250.367 1438.36 266.206C1334.52 345.678 1307.83 463.636 1242.83 563.115C1159.35 690.243 986.743 788.333 802.675 765.964C719.194 755.822 646.833 721.365 573.104 689.132C515.112 663.845 461.739 642.588 410.077 626.61C383.048 618.274 355.678 611.466 327.965 605.769C253.722 590.347 176.571 582.289 87.2741 577.565C64.6933 576.314 42.1125 575.342 19.1896 574.925C-34.5253 574.23 -87.0428 578.954 -135.968 593.404C-233.647 622.164 -316.443 691.633 -342.445 776.384" stroke="#61E987" stroke-miterlimit="10"/>
<path d="M2104.66 255.785C2041.37 234.528 1975.85 218.133 1909.14 204.934C1860.72 195.348 1811.97 188.54 1762.87 186.456C1674.09 182.565 1582.57 195.348 1504.39 230.916C1479.24 242.308 1455.81 256.063 1434.94 272.18C1330.25 352.764 1304.24 472.389 1238.04 572.841C1152.85 701.497 975.282 797.92 789.504 774.3C706.023 763.741 633.32 729.562 559.932 696.773C502.454 671.07 449.423 648.423 397.761 630.5C370.732 621.052 343.191 612.994 315.307 606.047C240.38 587.012 162.202 575.342 72.9053 570.062C50.3245 568.673 27.7437 567.561 4.82076 567.422C-49.0652 567.005 -101.583 572.841 -150.508 588.263C-248.016 618.829 -329.615 689.131 -355.104 774.161" stroke="#61E987" stroke-miterlimit="10"/>
<path d="M2109.11 260.232C2044.79 239.391 1978.42 222.718 1911.02 209.519C1862.09 199.933 1812.82 193.125 1763.04 191.041C1673.23 187.289 1580.51 200.211 1501.82 236.195C1476.34 247.866 1452.9 261.76 1431.69 278.155C1326.14 359.989 1300.82 481.142 1233.42 582.428C1146.52 712.473 963.649 807.228 776.502 782.359C693.021 771.244 619.976 737.621 546.759 704.137C489.965 678.017 436.934 653.98 385.272 633.973C358.244 623.553 330.531 614.105 302.476 605.769C226.864 583.261 147.661 567.978 58.3637 561.865C35.7829 560.337 13.0311 559.225 -9.89188 559.225C-63.9489 559.225 -116.637 566.172 -165.391 582.567C-262.728 614.939 -343.13 685.936 -368.105 771.244" stroke="#61E987" stroke-miterlimit="10"/>
<path d="M2113.56 264.817C2048.21 244.532 1981.15 227.303 1913.07 214.104C1863.63 204.518 1813.85 197.71 1763.38 195.626C1672.55 191.874 1578.46 205.212 1499.26 241.475C1473.6 253.285 1449.82 267.317 1428.44 283.99C1321.86 367.075 1297.4 489.895 1228.63 592.014C1140.02 723.588 952.187 816.676 763.329 790.556C680.02 779.024 606.29 745.818 533.416 711.501C477.135 684.964 424.446 659.399 372.613 637.447C345.413 625.915 317.701 615.356 289.646 605.63C213.35 579.51 133.12 560.753 43.8229 553.807C21.2421 552 -1.50973 551.028 -24.6037 551.167C-78.8319 551.445 -131.691 559.642 -180.274 577.009C-277.098 611.327 -356.473 683.157 -380.936 768.743" stroke="#61E987" stroke-miterlimit="10"/>
<path d="M2118.01 269.402C2051.63 249.534 1983.89 231.888 1914.95 218.689C1865 209.103 1814.53 202.295 1763.56 200.211C1671.69 196.598 1576.41 210.075 1496.52 246.755C1470.69 258.703 1446.57 273.014 1425.19 289.825C1317.76 374.16 1293.98 498.51 1224.01 601.462C1133.69 734.564 940.726 826.124 750.328 798.614C667.019 786.527 592.947 753.877 520.244 718.864C464.476 691.91 412.13 664.818 360.296 640.92C333.097 628.277 305.213 616.467 276.987 605.491C200.007 575.898 118.75 553.529 29.4534 545.748C6.87255 543.803 -16.0504 542.692 -39.1444 542.969C-93.5436 543.664 -146.574 552.973 -194.986 571.174C-291.81 607.575 -369.816 680.24 -393.766 766.103" stroke="#61E987" stroke-miterlimit="10"/>
<path d="M2122.63 273.986C2055.23 254.535 1986.63 236.612 1917 223.274C1866.54 213.688 1815.56 206.88 1763.9 204.796C1671.01 201.183 1574.53 214.938 1494.13 252.173C1467.95 264.261 1443.83 278.71 1422.11 295.8C1313.65 381.246 1290.73 507.263 1219.57 611.188C1127.19 745.679 929.094 835.85 737.328 806.812C654.019 794.446 579.434 762.213 507.073 726.228C451.989 698.996 399.643 670.375 347.809 644.394C320.61 630.639 292.726 617.579 264.158 605.352C186.494 572.146 104.211 546.165 14.9137 537.829C-7.66709 535.745 -30.59 534.633 -53.8551 535.05C-108.425 536.023 -161.627 546.582 -210.039 565.755C-306.349 603.963 -383.158 677.322 -406.766 763.463" stroke="#61E987" stroke-miterlimit="10"/>
<path d="M2127.07 278.432C2058.65 259.398 1989.36 241.058 1918.89 227.72C1867.91 218.133 1816.42 211.325 1764.07 209.241C1670.15 205.768 1572.3 219.8 1491.39 257.314C1465.05 269.54 1440.58 284.267 1418.69 301.635C1309.37 388.332 1287.14 516.015 1214.78 620.635C1120.69 756.655 917.461 845.019 723.985 814.87C640.675 801.949 565.577 770.271 493.558 733.591C438.988 705.943 386.984 675.932 335.15 647.867C307.951 633.139 279.896 618.69 251.157 605.213C172.808 568.534 89.4986 538.94 0.201855 529.77C-22.3789 527.408 -45.4729 526.435 -68.5669 526.991C-123.308 528.381 -176.51 539.912 -224.922 560.197C-320.89 600.35 -396.673 674.543 -419.596 760.962" stroke="#61E987" stroke-miterlimit="10"/>
<path d="M2131.52 283.017C2011.77 250.923 1890.32 218.55 1764.41 213.965C1638.51 209.381 1505.42 235.918 1415.61 307.609C1305.27 395.557 1283.89 524.769 1210.33 630.222C1114.36 767.631 906.171 854.328 711.155 823.067C565.406 799.587 443.778 721.504 322.834 651.341C201.889 581.177 65.3782 514.348 -83.1077 518.933C-247.161 524.213 -398.555 627.999 -432.426 758.323" stroke="#61E987" stroke-miterlimit="10"/>
<path d="M-423.188 756.655C-390.001 635.918 -254.687 539.635 -103.806 524.629C-93.8841 523.657 -83.9623 522.962 -74.0404 522.823C68.2871 519.072 199.666 580.482 317.189 646.478C321.295 648.701 325.229 651.062 329.335 653.285C449.937 721.782 571.736 797.503 716.117 818.899C909.422 847.242 1113.16 759.017 1210.67 623.97C1223.16 606.602 1234.45 588.541 1244.88 570.201C1296.55 479.475 1329.73 381.524 1421.94 311.499C1467.95 276.626 1524.58 253.006 1585.65 238.696C1644.67 224.941 1707.96 219.939 1769.37 222.162C1894.59 226.469 2015.54 256.758 2133.58 285.24" stroke="#61E987" stroke-miterlimit="10"/>
<path d="M-414.121 754.988C-379.566 635.78 -244.252 542.136 -94.5685 528.242C-84.8177 527.269 -74.8959 526.714 -64.974 526.575C76.156 523.379 206.509 583.956 323.689 648.423C327.795 650.646 331.73 652.869 335.835 655.092C456.095 722.06 577.895 795.419 721.077 814.592C912.843 840.018 1112.14 750.125 1211.01 617.579C1223.84 600.489 1235.13 582.844 1245.91 564.921C1299.28 476.418 1335.38 382.358 1428.27 315.39C1474.63 282.045 1531.08 259.537 1591.81 246.06C1650.48 233 1713.26 228.415 1774.51 230.36C1899.04 234.389 2019.3 262.593 2135.63 287.602" stroke="#61E987" stroke-miterlimit="10"/>
<path d="M-404.885 753.32C-368.961 635.64 -233.476 544.775 -85.1612 531.854C-75.4104 531.02 -65.6595 530.465 -55.9087 530.326C84.0238 527.825 213.35 587.429 330.189 650.368C334.294 652.591 338.229 654.675 342.334 656.898C462.423 722.337 584.223 793.334 725.866 810.285C916.092 832.793 1110.94 741.233 1211.18 611.187C1224.18 594.376 1235.82 577.148 1246.94 559.642C1302.02 473.222 1341.02 383.052 1434.42 319.141C1480.95 287.324 1537.41 266.067 1597.79 253.284C1656.13 241.058 1718.57 236.612 1779.29 238.418C1903.15 242.169 2022.89 268.429 2137.51 289.686" stroke="#61E987" stroke-miterlimit="10"/>
<path d="M-395.818 751.653C-358.526 635.502 -223.041 547.276 -75.7526 535.328C-66.1729 534.494 -56.4221 534.077 -46.6713 533.938C92.0638 532.132 220.364 590.764 336.86 652.313C340.966 654.397 344.9 656.62 348.835 658.704C468.582 722.476 590.381 791.251 730.827 805.978C919.342 825.429 1109.74 732.341 1211.7 604.658C1224.87 588.263 1236.84 571.313 1248.3 554.362C1305.1 470.166 1347.01 383.747 1440.92 323.031C1487.8 292.743 1544.08 272.597 1603.95 260.648C1661.94 249.116 1723.87 245.087 1784.26 246.755C1907.42 250.228 2026.49 274.403 2139.39 292.187" stroke="#61E987" stroke-miterlimit="10"/>
<path d="M-386.58 749.986C-347.919 635.363 -212.434 549.777 -66.3433 538.94C-56.7636 538.245 -47.1838 537.829 -37.6041 537.69C99.9335 536.578 227.207 594.237 343.361 654.258C347.296 656.342 351.401 658.426 355.336 660.51C474.741 722.754 596.711 789.028 735.788 801.671C922.764 818.204 1108.54 723.449 1212.04 598.266C1225.38 582.15 1237.7 565.616 1249.5 549.082C1308.01 467.109 1352.83 384.58 1447.25 326.782C1494.3 298.022 1550.58 278.988 1610.11 267.873C1667.76 257.036 1729.34 253.285 1789.39 254.813C1911.87 258.008 2030.42 280.099 2141.61 294.41" stroke="#61E987" stroke-miterlimit="10"/>
<path d="M-377.342 748.319C-337.312 635.224 -201.827 552.417 -56.9339 542.552C-47.5253 541.858 -37.9455 541.58 -28.3658 541.58C107.974 541.163 234.393 597.849 350.034 656.481C353.968 658.565 358.074 660.51 362.008 662.594C481.071 723.171 603.212 787.221 740.921 797.642C926.357 811.257 1107.69 714.835 1212.55 592.153C1226.07 576.314 1238.55 560.197 1250.7 544.081C1310.92 464.191 1358.64 385.553 1453.58 330.811C1500.97 303.58 1556.91 285.796 1616.27 275.375C1673.58 265.233 1734.82 261.76 1794.35 263.288C1916.32 266.206 2034.01 286.213 2143.5 296.911" stroke="#61E987" stroke-miterlimit="10"/>
<path d="M-368.275 746.651C-326.877 635.085 -191.392 554.918 -47.5254 546.026C-38.1167 545.47 -28.708 545.192 -19.1283 545.192C116.014 545.47 241.406 601.323 356.705 658.287C360.64 660.232 364.745 662.177 368.68 664.262C487.571 723.31 609.542 784.998 746.053 793.196C929.779 803.755 1106.66 705.804 1213.06 585.484C1226.75 569.923 1239.58 554.223 1252.07 538.523C1313.99 460.857 1364.63 385.97 1460.09 334.424C1507.81 308.721 1563.58 292.048 1622.43 282.322C1679.39 272.875 1740.12 269.818 1799.48 271.068C1920.77 273.569 2037.78 291.631 2145.72 298.856" stroke="#61E987" stroke-miterlimit="10"/>
<path d="M-359.039 744.985C-316.272 634.946 -180.617 557.558 -38.118 549.638C-28.7093 549.083 -19.4717 548.944 -10.0631 548.944C123.882 549.916 248.248 604.797 363.204 660.233C367.139 662.178 371.245 664.123 375.179 666.068C493.728 723.449 615.87 782.776 750.841 788.889C933.027 796.53 1105.46 696.912 1213.23 579.093C1227.09 563.949 1240.26 548.527 1253.09 533.244C1316.9 457.801 1370.27 386.804 1466.41 338.176C1514.31 314 1570.08 298.578 1628.58 289.547C1685.21 280.933 1745.59 278.016 1804.44 279.127C1925.04 281.35 2041.54 297.328 2147.6 300.94" stroke="#61E987" stroke-miterlimit="10"/>
<path d="M-349.801 743.317C-305.666 634.668 -170.01 560.059 -28.7087 553.112C-19.4711 552.695 -10.2334 552.417 -0.824783 552.556C131.923 554.223 255.262 608.131 369.877 662.178C373.811 663.984 377.746 665.929 381.851 667.735C500.058 723.588 622.371 780.552 755.974 784.443C936.621 789.167 1104.44 687.881 1213.75 572.563C1227.78 557.697 1241.29 542.692 1254.46 527.964C1319.98 454.605 1376.26 387.498 1472.91 342.066C1521.16 319.419 1576.75 305.108 1634.91 296.911C1691.2 288.992 1751.07 286.491 1809.57 287.463C1929.49 289.408 2045.3 303.441 2149.83 303.441" stroke="#61E987" stroke-miterlimit="10"/>
<path d="M-340.734 741.511C-295.231 634.529 -159.575 562.559 -19.3001 556.585C-10.0625 556.168 -0.995977 556.029 8.24162 556.307C139.792 558.53 262.105 611.604 376.377 664.123C380.312 665.929 384.246 667.735 388.181 669.541C506.046 723.727 628.358 778.607 760.764 780.135C939.7 782.219 1103.07 678.989 1213.92 566.172C1228.29 551.583 1241.8 536.995 1255.49 522.684C1322.72 451.548 1381.74 388.193 1479.07 345.817C1527.48 324.698 1582.91 311.638 1640.73 304.135C1696.67 296.911 1756.2 294.688 1814.36 295.521C1933.6 297.189 2048.9 309.137 2151.54 305.525" stroke="#61E987" stroke-miterlimit="10"/>
<path d="M-331.496 739.844C-284.624 634.39 -148.968 565.06 -9.89078 560.198C-0.824252 559.92 8.41335 559.781 17.4799 560.059C147.833 562.976 269.119 615.078 383.049 666.207C386.984 668.013 390.918 669.68 394.853 671.487C512.376 724.144 634.859 776.662 765.896 775.968C943.293 774.995 1102.21 670.236 1214.43 559.781C1228.97 545.609 1242.83 531.299 1256.69 517.405C1325.63 448.492 1387.55 389.027 1485.4 349.707C1534.16 330.117 1589.41 318.169 1646.89 311.5C1702.49 304.97 1761.68 303.163 1819.33 303.858C1937.87 305.247 2052.49 315.112 2153.59 308.026" stroke="#61E987" stroke-miterlimit="10"/>
<path d="M-322.26 738.176C-274.019 634.251 -138.363 567.7 -0.483357 563.81C8.58318 563.532 17.6497 563.532 26.7162 563.81C155.872 567.422 276.131 618.69 389.72 668.152C393.654 669.819 397.589 671.625 401.523 673.293C518.875 724.422 641.359 774.578 770.856 771.66C946.713 767.77 1101.01 661.344 1214.77 553.389C1229.49 539.496 1243.68 525.602 1257.88 512.125C1328.53 445.296 1393.37 389.721 1491.73 353.458C1540.83 335.397 1595.91 324.698 1653.05 318.724C1708.47 313.028 1766.98 311.36 1824.46 311.916C1942.32 313.028 2056.42 320.808 2155.64 310.11" stroke="#61E987" stroke-miterlimit="10"/>
<path d="M-313.191 736.509C-263.582 634.112 -127.755 570.201 8.92715 567.284C17.8226 567.145 26.8892 567.145 35.7846 567.422C163.743 571.73 283.147 622.025 396.222 669.958C400.157 671.626 404.091 673.293 408.026 674.96C525.035 724.422 647.519 772.216 775.819 767.215C949.965 760.407 1099.82 652.313 1215.12 546.86C1230 533.244 1244.54 519.767 1259.08 506.707C1331.44 442.101 1399.19 390.277 1498.06 357.21C1547.33 340.676 1602.41 331.09 1659.04 325.949C1714.12 320.947 1772.28 319.697 1829.25 320.114C1946.43 320.947 2059.85 326.644 2157.52 312.472" stroke="#61E987" stroke-miterlimit="10"/>
<path d="M-303.955 734.842C-252.977 633.973 -117.15 572.702 18.3345 570.896C27.23 570.757 36.1255 570.896 45.0209 571.173C171.781 576.175 290.159 625.498 402.892 672.042C406.827 673.709 410.762 675.238 414.696 676.905C531.364 724.838 654.018 770.271 780.95 763.046C953.556 753.321 1098.96 643.421 1215.8 540.607C1230.86 527.269 1245.57 514.209 1260.62 501.705C1334.69 439.322 1405.34 391.249 1504.9 361.239C1554.51 346.234 1609.43 337.897 1665.71 333.312C1720.45 329.005 1778.1 328.033 1834.72 328.311C1951.22 328.866 2064.12 332.479 2160.09 314.695" stroke="#61E987" stroke-miterlimit="10"/>
<path d="M-294.717 733.175C-242.37 633.834 -106.543 575.342 27.7439 574.369C36.4683 574.369 45.3637 574.508 54.0881 574.925C179.651 580.621 297.003 628.972 409.394 673.987C413.328 675.516 417.263 677.044 421.026 678.711C537.351 724.977 660.177 768.187 785.74 758.739C956.807 745.957 1097.59 634.529 1215.97 534.077C1231.2 521.156 1246.25 508.374 1261.48 496.286C1337.26 435.987 1410.82 391.944 1510.89 364.99C1560.84 351.513 1615.41 344.289 1671.52 340.537C1725.92 336.925 1783.23 336.23 1839.51 336.369C1955.32 336.647 2067.54 338.314 2161.8 316.918" stroke="#61E987" stroke-miterlimit="10"/>
<path d="M-285.65 731.507C-231.935 633.695 -96.1085 577.843 37.1524 577.981C45.8768 577.981 54.6012 578.259 63.3256 578.676C187.691 585.067 304.016 632.445 416.065 676.071C420 677.6 423.763 679.128 427.698 680.517C543.852 725.255 666.507 765.964 790.872 754.432C960.228 738.732 1096.57 625.637 1216.49 527.686C1231.88 515.043 1247.28 502.677 1262.85 491.007C1340.34 432.931 1416.81 392.639 1517.39 368.742C1567.51 356.793 1622.08 350.68 1677.68 347.762C1731.74 344.983 1788.7 344.566 1844.47 344.566C1959.6 344.566 2071.13 344.15 2163.85 319.28" stroke="#61E987" stroke-miterlimit="10"/>
<path d="M-276.412 729.84C-221.158 633.556 -85.3306 580.343 46.5618 581.455C55.1151 581.594 63.8395 581.872 72.3929 582.288C195.561 589.374 310.86 635.779 422.566 677.877C426.501 679.267 430.264 680.795 434.199 682.184C550.011 725.255 672.837 763.741 795.663 749.986C963.479 731.229 1095.37 616.606 1216.66 521.156C1232.22 508.79 1247.96 496.842 1263.87 485.588C1343.08 429.596 1422.45 393.194 1523.55 372.493C1574.02 362.072 1628.42 357.21 1683.67 354.987C1737.38 352.903 1793.84 352.764 1849.26 352.625C1963.88 352.347 2074.73 349.846 2165.56 321.364" stroke="#61E987" stroke-miterlimit="10"/>
<path d="M-267.176 728.173C-210.553 633.418 -74.7258 582.983 55.9691 585.067C64.5225 585.206 73.0758 585.484 81.6291 586.04C203.771 593.821 317.872 639.392 429.237 679.823C433.171 681.212 436.935 682.602 440.869 683.991C556.339 725.533 679.336 761.657 800.793 745.679C967.07 724.005 1094.34 607.714 1217.17 514.765C1233.08 502.817 1248.82 491.146 1265.24 480.309C1346.15 426.54 1428.44 394.028 1530.05 376.244C1580.69 367.352 1635.09 363.601 1690 362.212C1743.37 360.822 1799.48 361.1 1854.56 360.822C1968.49 360.128 2078.66 355.682 2167.96 323.726" stroke="#61E987" stroke-miterlimit="10"/>
<path d="M-258.109 726.506C-200.118 633.279 -64.2908 585.484 65.3777 588.68C73.931 588.819 82.3133 589.236 90.8666 589.93C211.811 598.266 324.886 643.004 435.908 682.046C439.843 683.435 443.606 684.686 447.541 686.075C562.669 725.95 685.665 759.712 805.925 741.65C970.491 716.919 1093.32 599.1 1217.68 508.513C1233.76 496.842 1249.84 485.588 1266.44 475.307C1349.06 423.761 1434.25 395.001 1536.38 380.274C1587.36 372.91 1641.41 370.409 1695.99 369.714C1749.02 369.02 1804.61 369.575 1859.35 369.159C1972.6 368.186 2082.25 361.656 2169.67 326.088" stroke="#61E987" stroke-miterlimit="10"/>
<path d="M-248.871 724.839C-189.511 633.14 -53.684 588.124 74.787 592.153C83.1693 592.431 91.5516 592.848 99.9339 593.543C219.681 602.574 331.729 646.339 442.409 683.852C446.173 685.103 450.107 686.492 453.871 687.742C568.656 726.089 691.825 757.211 810.716 737.343C973.742 709.417 1092.12 590.208 1217.85 502.122C1234.11 490.729 1250.53 479.892 1267.46 470.027C1351.8 420.565 1439.9 395.696 1542.71 384.164C1594.03 378.328 1647.92 376.939 1702.14 377.078C1754.83 377.078 1810.09 378.051 1864.49 377.495C1977.05 376.244 2086.02 367.63 2171.89 328.589" stroke="#61E987" stroke-miterlimit="10"/>
<path d="M-239.805 723.171C-179.076 633.001 -43.2491 590.625 84.0245 595.765C92.4068 596.043 100.618 596.599 109 597.294C227.549 607.019 338.743 649.812 448.91 685.797C452.673 687.047 456.608 688.298 460.371 689.548C574.986 726.367 697.983 755.127 815.506 733.036C976.822 702.192 1090.75 581.316 1218.03 495.73C1234.45 484.754 1251.21 474.195 1268.49 464.747C1354.54 417.509 1445.54 396.529 1548.87 387.915C1600.36 383.608 1654.25 383.469 1708.13 384.164C1760.48 384.997 1815.39 386.109 1869.28 385.414C1981.15 383.886 2089.61 373.326 2173.6 330.534" stroke="#61E987" stroke-miterlimit="10"/>
<path d="M-230.566 721.504C-168.469 632.862 -32.4712 593.264 93.6049 599.378C101.816 599.794 110.027 600.35 118.239 601.045C235.59 611.465 345.757 653.285 455.582 687.881C459.345 689.131 463.28 690.243 467.043 691.493C581.316 726.644 704.484 753.181 820.638 728.867C980.415 695.106 1089.9 572.563 1218.54 489.339C1235.13 478.641 1252.07 468.499 1269.86 459.468C1357.62 414.452 1451.53 397.224 1555.37 391.805C1607.2 389.165 1660.92 389.999 1714.29 391.527C1766.29 393.055 1820.69 394.584 1874.24 393.611C1985.43 391.805 2093.2 379.162 2175.66 332.896" stroke="#61E987" stroke-miterlimit="10"/>
<path d="M-221.33 719.698C-157.864 632.584 -21.8663 595.626 103.012 602.712C111.224 603.129 119.264 603.824 127.475 604.518C243.629 615.633 352.77 656.481 462.252 689.548C466.016 690.66 469.779 691.771 473.714 693.022C587.644 726.645 710.812 750.681 825.769 724.283C983.835 687.464 1088.87 563.393 1219.05 482.67C1235.82 472.25 1253.09 462.663 1271.06 453.91C1360.69 410.979 1457.35 397.641 1561.7 395.279C1613.87 394.167 1667.25 396.251 1720.45 398.474C1772.11 400.697 1826.17 402.503 1879.37 401.531C1989.88 399.447 2097.14 384.719 2177.71 334.841" stroke="#61E987" stroke-miterlimit="10"/>
<path d="M-212.264 718.03C-147.429 632.445 -11.4314 598.127 112.25 606.325C120.29 606.88 128.33 607.575 136.541 608.409C251.498 620.218 359.612 660.232 468.753 691.771C472.516 692.883 476.28 693.994 480.214 694.967C593.802 726.922 717.142 748.735 830.73 720.114C987.256 680.378 1087.67 554.64 1219.56 476.418C1236.5 466.276 1254.12 457.106 1272.42 448.908C1363.77 408.2 1463.33 398.752 1568.2 399.447C1620.54 399.863 1673.92 403.059 1726.78 406.116C1778.1 409.033 1831.64 411.117 1884.5 410.006C1994.33 407.644 2100.9 390.832 2179.93 337.48" stroke="#61E987" stroke-miterlimit="10"/>
<path d="M-203.025 716.363C-136.823 632.306 -0.824597 600.767 121.83 609.798C129.87 610.354 137.91 611.188 145.78 612.021C259.539 624.526 366.627 663.567 475.596 693.578C479.36 694.55 483.123 695.662 486.887 696.634C600.304 727.062 723.643 746.513 835.691 715.669C990.678 673.015 1086.65 545.609 1219.91 469.888C1237.01 460.163 1254.98 451.271 1273.62 443.49C1366.68 405.004 1469.15 399.308 1574.53 403.059C1627.22 405.004 1680.42 409.451 1732.76 413.202C1783.74 416.953 1836.94 419.315 1889.46 418.065C1998.6 415.425 2104.66 396.529 2181.81 339.565" stroke="#61E987" stroke-miterlimit="10"/>
<path d="M-193.787 714.696C-126.216 632.167 9.95327 603.268 131.24 613.41C252.526 623.553 366.114 665.095 482.097 695.522C598.251 726.089 726.209 745.54 840.653 711.361C1013.77 659.954 1108.03 502.26 1274.82 438.21C1416.81 383.747 1582.74 406.81 1738.92 420.426C1895.11 434.042 2071.99 431.263 2183.87 341.788" stroke="#61E987" stroke-miterlimit="10"/>
</g>
<path d="M1593.86 808.34C1595.75 808.34 1597.28 807.096 1597.28 805.561C1597.28 804.027 1595.75 802.783 1593.86 802.783C1591.97 802.783 1590.44 804.027 1590.44 805.561C1590.44 807.096 1591.97 808.34 1593.86 808.34Z" fill="#61E987"/>
<path d="M1554.51 808.34C1556.4 808.34 1557.93 807.096 1557.93 805.561C1557.93 804.027 1556.4 802.783 1554.51 802.783C1552.62 802.783 1551.09 804.027 1551.09 805.561C1551.09 807.096 1552.62 808.34 1554.51 808.34Z" fill="#61E987"/>
<path d="M1515.17 808.34C1517.06 808.34 1518.59 807.096 1518.59 805.561C1518.59 804.027 1517.06 802.783 1515.17 802.783C1513.28 802.783 1511.75 804.027 1511.75 805.561C1511.75 807.096 1513.28 808.34 1515.17 808.34Z" fill="#61E987"/>
<path d="M1475.82 808.34C1477.71 808.34 1479.24 807.096 1479.24 805.561C1479.24 804.027 1477.71 802.783 1475.82 802.783C1473.93 802.783 1472.4 804.027 1472.4 805.561C1472.4 807.096 1473.93 808.34 1475.82 808.34Z" fill="#61E987"/>
<path d="M1436.48 808.34C1438.37 808.34 1439.9 807.096 1439.9 805.561C1439.9 804.027 1438.37 802.783 1436.48 802.783C1434.59 802.783 1433.05 804.027 1433.05 805.561C1433.05 807.096 1434.59 808.34 1436.48 808.34Z" fill="#61E987"/>
<path d="M1593.86 773.606C1595.75 773.606 1597.28 772.362 1597.28 770.827C1597.28 769.292 1595.75 768.048 1593.86 768.048C1591.97 768.048 1590.44 769.292 1590.44 770.827C1590.44 772.362 1591.97 773.606 1593.86 773.606Z" fill="#61E987"/>
<path d="M1554.51 773.606C1556.4 773.606 1557.93 772.362 1557.93 770.827C1557.93 769.292 1556.4 768.048 1554.51 768.048C1552.62 768.048 1551.09 769.292 1551.09 770.827C1551.09 772.362 1552.62 773.606 1554.51 773.606Z" fill="#61E987"/>
<path d="M1515.17 773.606C1517.06 773.606 1518.59 772.362 1518.59 770.827C1518.59 769.292 1517.06 768.048 1515.17 768.048C1513.28 768.048 1511.75 769.292 1511.75 770.827C1511.75 772.362 1513.28 773.606 1515.17 773.606Z" fill="#61E987"/>
<path d="M1475.82 773.606C1477.71 773.606 1479.24 772.362 1479.24 770.827C1479.24 769.292 1477.71 768.048 1475.82 768.048C1473.93 768.048 1472.4 769.292 1472.4 770.827C1472.4 772.362 1473.93 773.606 1475.82 773.606Z" fill="#61E987"/>
<path d="M1436.48 773.606C1438.37 773.606 1439.9 772.362 1439.9 770.827C1439.9 769.292 1438.37 768.048 1436.48 768.048C1434.59 768.048 1433.05 769.292 1433.05 770.827C1433.05 772.362 1434.59 773.606 1436.48 773.606Z" fill="#61E987"/>
<path d="M1593.86 738.871C1595.75 738.871 1597.28 737.627 1597.28 736.093C1597.28 734.558 1595.75 733.314 1593.86 733.314C1591.97 733.314 1590.44 734.558 1590.44 736.093C1590.44 737.627 1591.97 738.871 1593.86 738.871Z" fill="#61E987"/>
<path d="M1554.51 738.871C1556.4 738.871 1557.93 737.627 1557.93 736.093C1557.93 734.558 1556.4 733.314 1554.51 733.314C1552.62 733.314 1551.09 734.558 1551.09 736.093C1551.09 737.627 1552.62 738.871 1554.51 738.871Z" fill="#61E987"/>
<path d="M1515.17 738.871C1517.06 738.871 1518.59 737.627 1518.59 736.093C1518.59 734.558 1517.06 733.314 1515.17 733.314C1513.28 733.314 1511.75 734.558 1511.75 736.093C1511.75 737.627 1513.28 738.871 1515.17 738.871Z" fill="#61E987"/>
<path d="M1475.82 738.871C1477.71 738.871 1479.24 737.627 1479.24 736.093C1479.24 734.558 1477.71 733.314 1475.82 733.314C1473.93 733.314 1472.4 734.558 1472.4 736.093C1472.4 737.627 1473.93 738.871 1475.82 738.871Z" fill="#61E987"/>
<path d="M1436.48 738.871C1438.37 738.871 1439.9 737.627 1439.9 736.093C1439.9 734.558 1438.37 733.314 1436.48 733.314C1434.59 733.314 1433.05 734.558 1433.05 736.093C1433.05 737.627 1434.59 738.871 1436.48 738.871Z" fill="#61E987"/>
<path d="M1593.86 704.137C1595.75 704.137 1597.28 702.893 1597.28 701.358C1597.28 699.824 1595.75 698.58 1593.86 698.58C1591.97 698.58 1590.44 699.824 1590.44 701.358C1590.44 702.893 1591.97 704.137 1593.86 704.137Z" fill="#61E987"/>
<path d="M1554.51 704.137C1556.4 704.137 1557.93 702.893 1557.93 701.358C1557.93 699.824 1556.4 698.58 1554.51 698.58C1552.62 698.58 1551.09 699.824 1551.09 701.358C1551.09 702.893 1552.62 704.137 1554.51 704.137Z" fill="#61E987"/>
<path d="M1515.17 704.137C1517.06 704.137 1518.59 702.893 1518.59 701.358C1518.59 699.824 1517.06 698.58 1515.17 698.58C1513.28 698.58 1511.75 699.824 1511.75 701.358C1511.75 702.893 1513.28 704.137 1515.17 704.137Z" fill="#61E987"/>
<path d="M1475.82 704.137C1477.71 704.137 1479.24 702.893 1479.24 701.358C1479.24 699.824 1477.71 698.58 1475.82 698.58C1473.93 698.58 1472.4 699.824 1472.4 701.358C1472.4 702.893 1473.93 704.137 1475.82 704.137Z" fill="#61E987"/>
<path d="M1436.48 704.137C1438.37 704.137 1439.9 702.893 1439.9 701.358C1439.9 699.824 1438.37 698.58 1436.48 698.58C1434.59 698.58 1433.05 699.824 1433.05 701.358C1433.05 702.893 1434.59 704.137 1436.48 704.137Z" fill="#61E987"/>
<path d="M1593.86 669.403C1595.75 669.403 1597.28 668.159 1597.28 666.624C1597.28 665.089 1595.75 663.845 1593.86 663.845C1591.97 663.845 1590.44 665.089 1590.44 666.624C1590.44 668.159 1591.97 669.403 1593.86 669.403Z" fill="#61E987"/>
<path d="M1554.51 669.403C1556.4 669.403 1557.93 668.159 1557.93 666.624C1557.93 665.089 1556.4 663.845 1554.51 663.845C1552.62 663.845 1551.09 665.089 1551.09 666.624C1551.09 668.159 1552.62 669.403 1554.51 669.403Z" fill="#61E987"/>
<path d="M1515.17 669.403C1517.06 669.403 1518.59 668.159 1518.59 666.624C1518.59 665.089 1517.06 663.845 1515.17 663.845C1513.28 663.845 1511.75 665.089 1511.75 666.624C1511.75 668.159 1513.28 669.403 1515.17 669.403Z" fill="#61E987"/>
<path d="M1475.82 669.403C1477.71 669.403 1479.24 668.159 1479.24 666.624C1479.24 665.089 1477.71 663.845 1475.82 663.845C1473.93 663.845 1472.4 665.089 1472.4 666.624C1472.4 668.159 1473.93 669.403 1475.82 669.403Z" fill="#61E987"/>
<path d="M1436.48 669.403C1438.37 669.403 1439.9 668.159 1439.9 666.624C1439.9 665.089 1438.37 663.845 1436.48 663.845C1434.59 663.845 1433.05 665.089 1433.05 666.624C1433.05 668.159 1434.59 669.403 1436.48 669.403Z" fill="#61E987"/>
<path d="M1593.86 634.668C1595.75 634.668 1597.28 633.424 1597.28 631.89C1597.28 630.355 1595.75 629.111 1593.86 629.111C1591.97 629.111 1590.44 630.355 1590.44 631.89C1590.44 633.424 1591.97 634.668 1593.86 634.668Z" fill="#61E987"/>
<path d="M1554.51 634.668C1556.4 634.668 1557.93 633.424 1557.93 631.89C1557.93 630.355 1556.4 629.111 1554.51 629.111C1552.62 629.111 1551.09 630.355 1551.09 631.89C1551.09 633.424 1552.62 634.668 1554.51 634.668Z" fill="#61E987"/>
<path d="M1515.17 634.668C1517.06 634.668 1518.59 633.424 1518.59 631.89C1518.59 630.355 1517.06 629.111 1515.17 629.111C1513.28 629.111 1511.75 630.355 1511.75 631.89C1511.75 633.424 1513.28 634.668 1515.17 634.668Z" fill="#61E987"/>
<path d="M1475.82 634.668C1477.71 634.668 1479.24 633.424 1479.24 631.89C1479.24 630.355 1477.71 629.111 1475.82 629.111C1473.93 629.111 1472.4 630.355 1472.4 631.89C1472.4 633.424 1473.93 634.668 1475.82 634.668Z" fill="#61E987"/>
<path d="M1436.48 634.668C1438.37 634.668 1439.9 633.424 1439.9 631.89C1439.9 630.355 1438.37 629.111 1436.48 629.111C1434.59 629.111 1433.05 630.355 1433.05 631.89C1433.05 633.424 1434.59 634.668 1436.48 634.668Z" fill="#61E987"/>
<path d="M1593.86 599.934C1595.75 599.934 1597.28 598.69 1597.28 597.155C1597.28 595.621 1595.75 594.376 1593.86 594.376C1591.97 594.376 1590.44 595.621 1590.44 597.155C1590.44 598.69 1591.97 599.934 1593.86 599.934Z" fill="#61E987"/>
<path d="M1554.51 599.934C1556.4 599.934 1557.93 598.69 1557.93 597.155C1557.93 595.621 1556.4 594.376 1554.51 594.376C1552.62 594.376 1551.09 595.621 1551.09 597.155C1551.09 598.69 1552.62 599.934 1554.51 599.934Z" fill="#61E987"/>
<path d="M1515.17 599.934C1517.06 599.934 1518.59 598.69 1518.59 597.155C1518.59 595.621 1517.06 594.376 1515.17 594.376C1513.28 594.376 1511.75 595.621 1511.75 597.155C1511.75 598.69 1513.28 599.934 1515.17 599.934Z" fill="#61E987"/>
<path d="M1475.82 599.934C1477.71 599.934 1479.24 598.69 1479.24 597.155C1479.24 595.621 1477.71 594.376 1475.82 594.376C1473.93 594.376 1472.4 595.621 1472.4 597.155C1472.4 598.69 1473.93 599.934 1475.82 599.934Z" fill="#61E987"/>
<path d="M1436.48 599.934C1438.37 599.934 1439.9 598.69 1439.9 597.155C1439.9 595.621 1438.37 594.376 1436.48 594.376C1434.59 594.376 1433.05 595.621 1433.05 597.155C1433.05 598.69 1434.59 599.934 1436.48 599.934Z" fill="#61E987"/>
<path d="M1593.86 565.2C1595.75 565.2 1597.28 563.956 1597.28 562.421C1597.28 560.886 1595.75 559.642 1593.86 559.642C1591.97 559.642 1590.44 560.886 1590.44 562.421C1590.44 563.956 1591.97 565.2 1593.86 565.2Z" fill="#61E987"/>
<path d="M1554.51 565.2C1556.4 565.2 1557.93 563.956 1557.93 562.421C1557.93 560.886 1556.4 559.642 1554.51 559.642C1552.62 559.642 1551.09 560.886 1551.09 562.421C1551.09 563.956 1552.62 565.2 1554.51 565.2Z" fill="#61E987"/>
<path d="M1515.17 565.2C1517.06 565.2 1518.59 563.956 1518.59 562.421C1518.59 560.886 1517.06 559.642 1515.17 559.642C1513.28 559.642 1511.75 560.886 1511.75 562.421C1511.75 563.956 1513.28 565.2 1515.17 565.2Z" fill="#61E987"/>
<path d="M1475.82 565.2C1477.71 565.2 1479.24 563.956 1479.24 562.421C1479.24 560.886 1477.71 559.642 1475.82 559.642C1473.93 559.642 1472.4 560.886 1472.4 562.421C1472.4 563.956 1473.93 565.2 1475.82 565.2Z" fill="#61E987"/>
<path d="M1436.48 565.2C1438.37 565.2 1439.9 563.956 1439.9 562.421C1439.9 560.886 1438.37 559.642 1436.48 559.642C1434.59 559.642 1433.05 560.886 1433.05 562.421C1433.05 563.956 1434.59 565.2 1436.48 565.2Z" fill="#61E987"/>
<path d="M1593.86 530.465C1595.75 530.465 1597.28 529.221 1597.28 527.686C1597.28 526.152 1595.75 524.908 1593.86 524.908C1591.97 524.908 1590.44 526.152 1590.44 527.686C1590.44 529.221 1591.97 530.465 1593.86 530.465Z" fill="#61E987"/>
<path d="M1554.51 530.465C1556.4 530.465 1557.93 529.221 1557.93 527.686C1557.93 526.152 1556.4 524.908 1554.51 524.908C1552.62 524.908 1551.09 526.152 1551.09 527.686C1551.09 529.221 1552.62 530.465 1554.51 530.465Z" fill="#61E987"/>
<path d="M1515.17 530.465C1517.06 530.465 1518.59 529.221 1518.59 527.686C1518.59 526.152 1517.06 524.908 1515.17 524.908C1513.28 524.908 1511.75 526.152 1511.75 527.686C1511.75 529.221 1513.28 530.465 1515.17 530.465Z" fill="#61E987"/>
<path d="M1475.82 530.465C1477.71 530.465 1479.24 529.221 1479.24 527.686C1479.24 526.152 1477.71 524.908 1475.82 524.908C1473.93 524.908 1472.4 526.152 1472.4 527.686C1472.4 529.221 1473.93 530.465 1475.82 530.465Z" fill="#61E987"/>
<path d="M1436.48 530.465C1438.37 530.465 1439.9 529.221 1439.9 527.686C1439.9 526.152 1438.37 524.908 1436.48 524.908C1434.59 524.908 1433.05 526.152 1433.05 527.686C1433.05 529.221 1434.59 530.465 1436.48 530.465Z" fill="#61E987"/>
<path d="M1593.86 495.731C1595.75 495.731 1597.28 494.487 1597.28 492.952C1597.28 491.417 1595.75 490.173 1593.86 490.173C1591.97 490.173 1590.44 491.417 1590.44 492.952C1590.44 494.487 1591.97 495.731 1593.86 495.731Z" fill="#61E987"/>
<path d="M1554.51 495.731C1556.4 495.731 1557.93 494.487 1557.93 492.952C1557.93 491.417 1556.4 490.173 1554.51 490.173C1552.62 490.173 1551.09 491.417 1551.09 492.952C1551.09 494.487 1552.62 495.731 1554.51 495.731Z" fill="#61E987"/>
<path d="M1515.17 495.731C1517.06 495.731 1518.59 494.487 1518.59 492.952C1518.59 491.417 1517.06 490.173 1515.17 490.173C1513.28 490.173 1511.75 491.417 1511.75 492.952C1511.75 494.487 1513.28 495.731 1515.17 495.731Z" fill="#61E987"/>
<path d="M1475.82 495.731C1477.71 495.731 1479.24 494.487 1479.24 492.952C1479.24 491.417 1477.71 490.173 1475.82 490.173C1473.93 490.173 1472.4 491.417 1472.4 492.952C1472.4 494.487 1473.93 495.731 1475.82 495.731Z" fill="#61E987"/>
<path d="M1436.48 495.731C1438.37 495.731 1439.9 494.487 1439.9 492.952C1439.9 491.417 1438.37 490.173 1436.48 490.173C1434.59 490.173 1433.05 491.417 1433.05 492.952C1433.05 494.487 1434.59 495.731 1436.48 495.731Z" fill="#61E987"/>
<path d="M1593.86 460.996C1595.75 460.996 1597.28 459.752 1597.28 458.218C1597.28 456.683 1595.75 455.439 1593.86 455.439C1591.97 455.439 1590.44 456.683 1590.44 458.218C1590.44 459.752 1591.97 460.996 1593.86 460.996Z" fill="#61E987"/>
<path d="M1554.51 460.996C1556.4 460.996 1557.93 459.752 1557.93 458.218C1557.93 456.683 1556.4 455.439 1554.51 455.439C1552.62 455.439 1551.09 456.683 1551.09 458.218C1551.09 459.752 1552.62 460.996 1554.51 460.996Z" fill="#61E987"/>
<path d="M1515.17 460.996C1517.06 460.996 1518.59 459.752 1518.59 458.218C1518.59 456.683 1517.06 455.439 1515.17 455.439C1513.28 455.439 1511.75 456.683 1511.75 458.218C1511.75 459.752 1513.28 460.996 1515.17 460.996Z" fill="#61E987"/>
<path d="M1475.82 460.996C1477.71 460.996 1479.24 459.752 1479.24 458.218C1479.24 456.683 1477.71 455.439 1475.82 455.439C1473.93 455.439 1472.4 456.683 1472.4 458.218C1472.4 459.752 1473.93 460.996 1475.82 460.996Z" fill="#61E987"/>
<path d="M1436.48 460.996C1438.37 460.996 1439.9 459.752 1439.9 458.218C1439.9 456.683 1438.37 455.439 1436.48 455.439C1434.59 455.439 1433.05 456.683 1433.05 458.218C1433.05 459.752 1434.59 460.996 1436.48 460.996Z" fill="#61E987"/>
</g>
<defs>
<clipPath id="clip0_8036_25750">
<rect width="1920" height="1040" fill="white"/>
</clipPath>
</defs>
</svg>
