<svg width="171" height="32" viewBox="0 0 171 32" fill="none" xmlns="http://www.w3.org/2000/svg">
<path d="M6.56 1.4V31H0.0800003V1.4H6.56ZM12.08 21.16H4.96V15.4H10.64C12.2133 15.4 13.3867 15.0667 14.16 14.4C14.9333 13.7067 15.32 12.6667 15.32 11.28C15.32 9.89333 14.9333 8.86667 14.16 8.2C13.3867 7.50667 12.2133 7.16 10.64 7.16H4.96V1.4H12.08C14.1067 1.4 15.8667 1.81333 17.36 2.64C18.88 3.46667 20.0533 4.62667 20.88 6.12C21.7333 7.58667 22.16 9.30667 22.16 11.28C22.16 13.2533 21.7333 14.9867 20.88 16.48C20.0533 17.9467 18.88 19.0933 17.36 19.92C15.8667 20.7467 14.1067 21.16 12.08 21.16ZM39.2519 11V16.8H37.2919C35.5319 16.8 34.1452 17.2267 33.1319 18.08C32.1452 18.9333 31.6519 20.3467 31.6519 22.32V31H25.4919V11.04H31.2919L31.7719 15.32H31.2119C31.4785 13.9867 32.0785 12.8933 33.0119 12.04C33.9719 11.16 35.2652 10.72 36.8919 10.72C37.2652 10.72 37.6385 10.7467 38.0119 10.8C38.4119 10.8267 38.8252 10.8933 39.2519 11ZM42.3669 31V11H48.5269V31H42.3669ZM45.4069 7.88C44.4202 7.88 43.5802 7.54667 42.8869 6.88C42.2202 6.18667 41.8869 5.34667 41.8869 4.36C41.8869 3.37333 42.2202 2.54667 42.8869 1.88C43.5802 1.21333 44.4202 0.879999 45.4069 0.879999C46.3669 0.879999 47.1802 1.21333 47.8469 1.88C48.5402 2.54667 48.8869 3.37333 48.8869 4.36C48.8869 5.34667 48.5402 6.18667 47.8469 6.88C47.1802 7.54667 46.3669 7.88 45.4069 7.88ZM59.3081 31H53.1481V11H58.9481L59.3481 13.08C59.9615 12.2267 60.8015 11.56 61.8681 11.08C62.9615 10.6 64.1615 10.36 65.4681 10.36C67.8415 10.36 69.6815 11.0933 70.9881 12.56C72.3215 14 72.9881 16.0267 72.9881 18.64V31H66.8281V20.12C66.8281 18.8667 66.5081 17.8667 65.8681 17.12C65.2281 16.3467 64.3748 15.96 63.3081 15.96C62.0815 15.96 61.1081 16.3333 60.3881 17.08C59.6681 17.8 59.3081 18.7867 59.3081 20.04V31ZM75.5259 11H89.2859V16.12H75.5259V11ZM85.4859 31H79.3259V4.8H85.4859V31ZM98.0944 31.52C95.9877 31.52 94.3077 30.9467 93.0544 29.8C91.8277 28.6267 91.2144 27.0667 91.2144 25.12C91.2144 23.28 91.841 21.8133 93.0944 20.72C94.3744 19.6267 96.2144 18.9867 98.6144 18.8L104.214 18.36V18.04C104.214 17.3733 104.081 16.8267 103.814 16.4C103.548 15.9467 103.161 15.6133 102.654 15.4C102.174 15.16 101.561 15.04 100.814 15.04C99.5077 15.04 98.5077 15.28 97.8144 15.76C97.1477 16.24 96.8144 16.9333 96.8144 17.84H91.6944C91.6944 16.32 92.081 15 92.8544 13.88C93.6277 12.76 94.721 11.8933 96.1344 11.28C97.5744 10.6667 99.241 10.36 101.134 10.36C103.081 10.36 104.721 10.7067 106.054 11.4C107.414 12.0933 108.441 13.1067 109.134 14.44C109.854 15.7733 110.214 17.4 110.214 19.32V31H104.774L104.374 28.36C104.054 29.2667 103.294 30.0267 102.094 30.64C100.921 31.2267 99.5877 31.52 98.0944 31.52ZM100.254 26.96C101.428 26.96 102.388 26.68 103.134 26.12C103.881 25.5333 104.254 24.6667 104.254 23.52V22.44L101.134 22.72C99.801 22.8267 98.8544 23.0533 98.2944 23.4C97.761 23.72 97.4944 24.2 97.4944 24.84C97.4944 25.56 97.721 26.0933 98.1744 26.44C98.6277 26.7867 99.321 26.96 100.254 26.96ZM120.433 31H114.633V0.84H120.793V13.32C121.406 12.4133 122.313 11.6933 123.513 11.16C124.739 10.6 126.073 10.32 127.513 10.32C129.379 10.32 130.993 10.7733 132.353 11.68C133.739 12.5867 134.806 13.8533 135.553 15.48C136.299 17.1067 136.673 19.0133 136.673 21.2C136.673 23.2533 136.259 25.0667 135.433 26.64C134.633 28.1867 133.499 29.3867 132.033 30.24C130.593 31.0933 128.926 31.52 127.033 31.52C125.646 31.52 124.379 31.24 123.233 30.68C122.113 30.0933 121.286 29.3467 120.753 28.44L120.433 31ZM120.833 20.88C120.833 21.8667 121.033 22.7467 121.433 23.52C121.859 24.2667 122.433 24.8533 123.153 25.28C123.899 25.68 124.753 25.88 125.713 25.88C126.699 25.88 127.539 25.6667 128.233 25.24C128.953 24.8133 129.499 24.2267 129.873 23.48C130.273 22.7333 130.473 21.8667 130.473 20.88C130.473 19.8933 130.273 19.0267 129.873 18.28C129.499 17.5333 128.953 16.9467 128.233 16.52C127.539 16.0933 126.699 15.88 125.713 15.88C124.753 15.88 123.899 16.0933 123.153 16.52C122.433 16.92 121.859 17.4933 121.433 18.24C121.033 18.9867 120.833 19.8667 120.833 20.88ZM146.378 31H140.218V0.84H146.378V31ZM160.28 31.52C158.28 31.52 156.493 31.0667 154.92 30.16C153.373 29.2533 152.146 28.0133 151.24 26.44C150.36 24.84 149.92 23.0133 149.92 20.96C149.92 18.88 150.346 17.0533 151.2 15.48C152.08 13.88 153.293 12.6267 154.84 11.72C156.386 10.8133 158.16 10.36 160.16 10.36C162.266 10.36 164.08 10.8 165.6 11.68C167.12 12.5333 168.293 13.76 169.12 15.36C169.946 16.9333 170.36 18.8133 170.36 21V22.56L153.16 22.64L153.24 18.84H164.24C164.24 17.7733 163.88 16.9333 163.16 16.32C162.44 15.68 161.453 15.36 160.2 15.36C159.16 15.36 158.306 15.56 157.64 15.96C157 16.36 156.52 16.9867 156.2 17.84C155.88 18.6667 155.72 19.7333 155.72 21.04C155.72 22.9067 156.093 24.2933 156.84 25.2C157.613 26.08 158.8 26.52 160.4 26.52C161.573 26.52 162.546 26.32 163.32 25.92C164.093 25.52 164.586 24.96 164.8 24.24H170.44C170.093 26.4533 169 28.2267 167.16 29.56C165.32 30.8667 163.026 31.52 160.28 31.52Z" fill="black"/>
</svg>
